<svg xmlns="http://www.w3.org/2000/svg" width="200mm" height="751.677" viewBox="0 0 200 198.881"><g transform="rotate(45.265 -305.67 168.469)"><rect width="107.93" height="169.559" x="-122.982" y="-255.274" ry="0" fill="#916f6f"/><path fill="#6c5353" d="M-122.982-255.274h6.056v169.559h-6.056zM-86.73-254.957h6.095v168.925h-6.095z"/><path fill="#c8b7b7" d="M-89.758-254.957h3.028v168.925h-3.028zM-18.079-255.274h3.028v168.925h-3.028zM-54.582-254.957h3.028v168.925h-3.028z"/><path fill="#6c5353" d="M-51.554-254.957h6.095v168.925h-6.095z"/><path fill="#c8b7b7" d="M-122.982-255.274h108.087v2.86h-108.087z"/></g><path fill="#f55" d="M80.668 42.858l75.965 76.67-76.954 76.246-75.964-76.67z"/><path d="M0 115.355l82.758 83.526 7.2-13.764-75.77-76.952z" fill="#f55"/><path d="M100.267 62.4a27.25 50.632 45.265 00-7.48 6.457 27.25 50.632 45.265 00-18.391 55.346 27.25 50.632 45.265 0054.438-14.378l.58-.558a27.25 50.632 45.265 008.23-9.143z" fill="#f9f9f9"/><path d="M156.633 119.528L70.998 64.886l9.67-22.027z" fill="#ccc"/><path d="M166.075 128.82L79.36 76.67 90.11 52.15z" fill="#f2f2f2"/></svg>