<svg xmlns="http://www.w3.org/2000/svg" xmlns:xlink="http://www.w3.org/1999/xlink" width="3664.777" height="2712.875" viewBox="0 0 969.639 717.781"><defs><radialGradient xlink:href="#a" id="c" cx="1699.683" cy="730.917" fx="1699.683" fy="730.917" r="96.322" gradientTransform="matrix(1 0 0 .5055 0 361.437)" gradientUnits="userSpaceOnUse"/><radialGradient xlink:href="#b" id="d" cx="1249.451" cy="736.77" fx="1249.451" fy="736.77" r="103.099" gradientTransform="matrix(1 0 0 .47702 0 385.315)" gradientUnits="userSpaceOnUse"/><linearGradient id="b"><stop offset="0" stop-color="#e9afaf"/><stop offset="1" stop-color="#e9afaf" stop-opacity="0"/></linearGradient><linearGradient id="a"><stop offset="0" stop-color="#e9afaf"/><stop offset="1" stop-color="#e9afaf" stop-opacity="0"/></linearGradient></defs><path d="M733.01 626.943s118.454-11.439 170.518-65.855c39.342-38.7 68.955-109.474 21.916-124.44C878.404 421.68 814.26 490.1 814.26 490.1" fill="#fff" stroke="#483e37" stroke-width="40" stroke-linejoin="round"/><path d="M417.033 21.941C541.367 25.576 786.2 140.604 820.834 418.855c25.104 201.681-133.15 257.573-133.15 257.573s-138.779 6.677-254.893 7.838c-101.086 1.011-279.948 3.197-313.272-35.484-50.415-58.518-64.33-124.378-72.697-213.815-8.927-95.415 38.193-219.47 65.678-257.148 30.132-41.306 72.04-75.858 130.406-104.806 58.366-28.947 91.917-49.116 174.127-51.072z" fill="#fff" stroke="#483e37" stroke-width="40" stroke-linecap="round"/><path d="M1790.862 715.26a96.296 48.678 0 01-60.088 61.728 96.296 48.678 0 01-122.19-30.295 96.296 48.678 0 0159.771-61.806A96.296 48.678 0 011790.7 715.02" fill="url(#c)" transform="translate(-1046.791 -399.382)"/><path d="M1347.072 720.952a103.099 49.18 0 01-64.333 62.364 103.099 49.18 0 01-130.822-30.607 103.099 49.18 0 0163.993-62.444 103.099 49.18 0 01130.988 30.445" fill="url(#d)" transform="translate(-1046.791 -399.382)"/><path d="M716.755 212.73s-43.392 4.232-64.558 5.29c-21.167 1.06-76.2-9.524-120.65-61.383-44.45-51.858-25.4-97.366-25.4-97.366s89.958 30.691 129.116 57.15c39.159 26.458 81.492 96.308 81.492 96.308z" fill="#e6e6e6"/><g stroke="#483e37" stroke-linecap="round"><path d="M254.304 96.059S233.38 73.205 194.75 59.494c-38.628-13.712-72.429-19.807-83.695-7.618-11.267 12.188-41.848 100.554 9.657 141.69" fill="#fff" stroke-width="40" stroke-linejoin="round"/><path d="M551.599 81.709s-14.72-15.145 21.261-36.347C608.84 24.16 677.532 13.558 697.157 24.16c19.626 10.6 34.346 115.098-16.354 151.445" fill="#e6e6e6" stroke-width="40" stroke-linejoin="round"/><path d="M306.661 299.591s-8.552 55.592 51.316 57.73c59.869 2.139 47.04-76.973 47.04-76.973s6.414 74.835 70.559 76.974c64.144 2.138 44.901-62.007 44.901-62.007" fill="none" stroke-width="40" stroke-linejoin="round"/><path d="M670.98 249.989a24.589 24.589 0 01-15.344 31.18 24.589 24.589 0 01-31.2-15.302 24.589 24.589 0 0115.262-31.22 24.589 24.589 0 0131.24 15.22M191.976 252.127a25.658 24.589 0 01-16.01 31.18 25.658 24.589 0 01-32.558-15.302 25.658 24.589 0 0115.926-31.22 25.658 24.589 0 0132.599 15.22" fill="#483e37" stroke-linejoin="round" stroke-miterlimit="0"/><path d="M129.194 325.25s-57.73 0-106.907 47.039M129.194 397.947S62.912 391.532 20.15 462.09M739.424 260.036s34.21-2.139 96.217 36.348" fill="none" stroke-width="40"/><path d="M741.135 351.335s51.316-14.967 106.908 25.658" fill="none" stroke-width="40" stroke-linejoin="round"/><path d="M142.023 609.688s17.106 83.388 38.487 87.665c21.382 4.276 76.974-57.73 76.974-57.73M632.089 626.312s23.947 73.018 60.296 70.88c36.349-2.138 68.528-117.277 68.528-117.277" fill="#fff" stroke-width="40" stroke-linejoin="round"/></g></svg>