<svg xmlns="http://www.w3.org/2000/svg" xmlns:xlink="http://www.w3.org/1999/xlink" width="755.906" height="557.934" viewBox="0 0 200 147.62"><defs><linearGradient id="d"><stop offset="0" stop-color="#483e37"/><stop offset="1" stop-color="#483e37" stop-opacity=".065"/></linearGradient><linearGradient id="c"><stop offset="0" stop-color="#1a1a1a"/><stop offset="1" stop-color="#1a1a1a" stop-opacity="0"/></linearGradient><linearGradient id="b"><stop offset="0" stop-color="#f5d48c"/><stop offset="1" stop-color="#f5d48c" stop-opacity="0"/></linearGradient><linearGradient id="a"><stop offset="0" stop-color="#b0793a"/><stop offset="1" stop-color="#b0793a" stop-opacity="0"/></linearGradient><linearGradient xlink:href="#a" id="f" x1="-274.411" y1="102.72" x2="-199.303" y2="102.7" gradientUnits="userSpaceOnUse" gradientTransform="matrix(.27274 0 0 1.16045 -104.286 -178.29)"/><linearGradient xlink:href="#b" id="e" x1="-385.589" y1="123.275" x2="-85.34" y2="123.275" gradientUnits="userSpaceOnUse" gradientTransform="matrix(.59178 0 0 .55849 79.474 100.432)"/><linearGradient xlink:href="#c" id="g" x1="-385.589" y1="123.275" x2="-85.34" y2="123.275" gradientUnits="userSpaceOnUse" gradientTransform="matrix(.59178 0 0 .55849 87.226 348.268)"/><linearGradient xlink:href="#d" id="h" x1="-274.411" y1="102.72" x2="-199.303" y2="102.7" gradientUnits="userSpaceOnUse" gradientTransform="matrix(.27274 0 0 1.16045 -166.353 -498.582)"/></defs><path d="M198.538 72.297a101.182 71.864 12.505 01-81.37 75.298A101.182 71.864 12.505 011.506 76.133 101.182 71.864 12.505 0182.577.65a101.182 71.864 12.505 01115.87 71.265" fill="#efca79"/><path d="M24.251 152.817a88.84 51.184 0 01-55.436 64.905 88.84 51.184 0 01-112.73-31.854 88.84 51.184 0 0155.143-64.988 88.84 51.184 0 01112.873 31.685" transform="rotate(12.505 550.359 860.198)" fill="url(#e)"/><path d="M-152.234-69.81a13.814 33.335 0 01-8.62 42.271 13.814 33.335 0 01-17.528-20.746 13.814 33.335 0 018.574-42.326 13.814 33.335 0 0117.55 20.636" transform="rotate(-77.495 38.122 -173.551)" fill="none" stroke="url(#f)" stroke-width="3.802" stroke-linecap="round" stroke-linejoin="round"/><path d="M96.34 46.45a31.316 7.914 12.505 0137.7 13.418 31.316 7.914 12.505 01-21.2 5.583 31.316 7.914 12.505 01-37.755-13.404 31.316 7.914 12.505 0121.103-5.618" fill="#b0793a"/></svg>