<svg xmlns="http://www.w3.org/2000/svg" width="619.184" height="550.098" viewBox="0 0 163.826 145.547"><path d="M78.208.409C60.893.82 53.826 5.069 41.533 11.166 29.24 17.263 20.413 24.54 14.067 33.24 8.277 41.176-1.647 67.304.233 87.4c1.763 18.838 4.694 32.71 15.312 45.035 7.019 8.147 44.691 7.687 65.982 7.474 24.456-.245 53.686-1.651 53.686-1.651s33.332-11.772 28.044-54.25c-7.295-58.606-58.862-82.834-85.049-83.6zm33.612 47.774a9.967 9.967 0 019.732 6.707l.017.05a9.967 9.967 0 01-6.219 12.638 9.967 9.967 0 01-12.646-6.203 9.967 9.967 0 016.186-12.655 9.967 9.967 0 012.93-.537zm-61.55.24a9.967 9.967 0 019.733 6.708l.017.049a9.967 9.967 0 01-6.22 12.638 9.967 9.967 0 01-12.646-6.202A9.967 9.967 0 0147.34 48.96a9.967 9.967 0 012.93-.537z" fill="#483e37"/><g fill="#483e37"><path d="M43.934 16.02s-4.407-4.814-12.543-7.702-15.255-4.172-17.628-1.604c-2.374 2.567-8.815 21.178 2.033 29.843M106.55 12.997s-3.1-3.19 4.478-7.655c7.579-4.466 22.047-6.699 26.18-4.466 4.134 2.233 7.234 24.242-3.445 31.898M19.97 127.038s3.602 17.563 8.106 18.464c4.503.9 16.212-12.16 16.212-12.16M123.188 130.54s5.044 15.379 12.7 14.928c7.656-.45 14.433-24.7 14.433-24.7"/></g></svg>