<svg xmlns="http://www.w3.org/2000/svg" width="129.177" height="107.238" viewBox="0 0 34.178 28.373"><g fill="#483e37"><g aria-label="食糧事情" style="line-height:1.25;-inkscape-font-specification:Aquino" font-weight="400" font-size="7.056" font-family="KFhimaji" letter-spacing="0" word-spacing="0" stroke-width=".265"><path d="M11.022 28.183l.395-.05.029-.07-.029-.416c-.148-.029-.275-.05-.395-.092a2.936 2.936 0 01-.402-.127v-.078l.078-.02c.099-.078.197-.177.268-.276a.744.744 0 00.155-.317l-.028-.198-.346-.155h-.127l-.571.592a.614.614 0 01-.254-.218c-.07-.07-.148-.17-.219-.268v-.078c.198 0 .374-.028.543-.099a.956.956 0 00.452-.268.692.692 0 00.197-.346c.029-.12.05-.247.078-.367 0-.204 0-.395-.028-.592a.946.946 0 00-.226-.522 1.02 1.02 0 00-.445-.268c-.176-.05-.373-.078-.55-.106v-.064a1.97 1.97 0 00-.176-.303 1.626 1.626 0 00-.254-.219l-.473.219c-.028.077 0 .127.021.176.028.078.05.127.078.17v.049l-.501.078c-.17.02-.325.07-.473.12h-.05c.227-.198.452-.417.678-.643.219-.218.423-.437.593-.663.43.402.882.77 1.333 1.08.445.353.946.592 1.468.769l.127-.028.155-.29-.035-.176a12.367 12.367 0 01-1.39-.91 74.256 74.256 0 00-1.348-1.01v-.049l-.31-.225h-.12a11.95 11.95 0 01-1.22 1.241c-.431.388-.876.734-1.348 1.052.02.077.049.155.07.218.028.078.078.149.127.226.198-.021.374-.099.55-.197.17-.092.325-.19.494-.318h.078l-.028.07.028.078c-.028.17-.05.367-.078.544-.02.176-.02.366-.049.543l.028.84-.028.218v.812a.919.919 0 00.226.712l.324.198c.127 0 .226-.028.353-.05.099-.028.198-.049.296-.098 0-.078 0-.177-.028-.247a.643.643 0 00-.099-.212l-.169.014h-.204l.028-1.129.748.021c0 .177.049.353.148.494.084.17.183.325.282.473.226.24.452.41.72.536.275.12.55.198.853.219zm-1.002-2.582c-.246.12-.522.169-.804.197-.275.021-.571.07-.847.099h-.098l-.029-.148v-.247c.304 0 .6 0 .875-.021.283 0 .558-.029.833-.078h.148zm.05-.812l-.296-.028c-.276 0-.523 0-.784.028-.247.021-.494.05-.72.12h-.049l-.028-.197v-.149l.423-.049h.755c.254 0 .473.05.699.148zM17.655 28.26c.225 0 .451 0 .677-.028.219 0 .423-.02.62-.049l.05-.219-.028-.226-.995-.127v-.098l.65-.05c.049-.028.077-.05.077-.127 0-.05 0-.099.021-.12v-.127c-.07-.077-.197-.098-.324-.127-.12 0-.247 0-.374-.02v-.078c.176-.022.324-.05.5-.071.149-.028.297-.106.424-.205.077-.07.127-.148.176-.225.021-.071.05-.17.07-.269.029-.176 0-.374-.02-.55a.79.79 0 00-.226-.451c-.099-.071-.198-.149-.325-.177-.127-.021-.247-.05-.374-.07-.275-.029-.55 0-.797.02a1.823 1.823 0 00-.727.255.531.531 0 00-.197.275c-.05.099-.099.197-.127.296-.021.148 0 .297.028.424.028.148.078.275.148.402.099.12.226.218.374.247.127.05.275.099.423.127l-.02.07-.354.078-.049.099.028.324.445.05v.098l-.748.078-.021.07.02.403zm-3.239-.373l.296-.05.078-.973c.099.077.198.148.296.225a.787.787 0 00.353.149l.099-.022.099-.303v-.12a3.282 3.282 0 01-.452-.55c-.12-.198-.247-.403-.374-.6v-.176c.177 0 .325 0 .501-.022.177-.028.325-.05.473-.077l.028-.127-.028-.325-.55-.07c.127-.149.254-.325.324-.501.078-.177.099-.346.127-.55l-.05-.495-.049-.028h-.374a1.506 1.506 0 00-.197.6c-.05.226-.106.423-.177.62v.078l.297.226v.05h-.346v-.875a1.889 1.889 0 00-.226-.748h-.176c-.05.028-.099.05-.148.077l-.1 1.546c-.126.02-.274.02-.401.049-.12.021-.247.05-.374.099v.374c.077.077.176.127.303.099.12-.022.226 0 .325.028-.078.226-.177.444-.275.67-.127.226-.247.452-.403.65a.649.649 0 00.127.423h.078c.12-.05.219-.128.346-.226.127-.07.197-.17.275-.297h.05l.077 1.094zm2.992-1.673l-.304-.02v-.05h.304zm.994-.07l-.275.07h-.098v-.07l.148-.028zm-.973-.55l-.346.049h-.078l.05-.176.324-.071h.05zm1.072-.05l-.021.021h-.473l-.028-.098v-.05c.099 0 .198 0 .275.028.078.022.177.05.247.1zm-1.99-.748h2.195l.818-.077.078-.198-.028-.247-.77-.106H16.76c-.149.029-.297.029-.424.029-.148.028-.303.049-.423.077l-.078.17.05.253zm-2.793-.099l.374-.254c-.029-.169-.05-.345-.1-.522a1.888 1.888 0 00-.225-.444c-.078 0-.176 0-.247.021a1.024 1.024 0 00-.226.127c0 .12.021.275.05.395.02.127.07.254.127.374zm3.71-.578c.255.028.502 0 .728-.05.225-.02.444-.12.649-.246.098-.1.169-.226.225-.346.05-.127.07-.254.1-.374 0-.127 0-.275-.029-.402-.021-.127-.099-.226-.176-.325a.807.807 0 00-.424-.296c-.169-.028-.324-.05-.494-.078-.254 0-.472.028-.677.078-.226.07-.423.17-.6.296l-.268.522c-.028.177 0 .353.05.501a.697.697 0 00.218.395c.106.078.205.156.325.205.127.07.254.099.374.12zm.953-.77l-.55.149c-.127 0-.226 0-.325-.021a.663.663 0 01-.296-.078v-.05l1.094-.077h.077zm.022-.62c-.198.021-.396.021-.6.021-.219.028-.424.05-.593.078h-.155l.05-.127.43-.127c.169 0 .317 0 .472.028.12.021.276.05.396.127zM23.15 28.373h.248c.077 0 .127-.02.204-.07a.74.74 0 00.198-.416c.021-.149.021-.283.05-.424l.507.05c.149 0 .297-.022.424-.078.12-.021.247-.07.374-.148.07-.113.148-.212.218-.332.05-.127.078-.24.106-.36l.445-.049.084-.247-.035-.212-.522-.077c0-.078-.028-.17-.05-.24a.979.979 0 00-.126-.219 1.461 1.461 0 00-.621-.395c-.226-.07-.48-.085-.755-.085v-.225c.226-.022.48-.05.705-.07.226-.03.445-.1.621-.22.078-.07.127-.12.177-.19a.844.844 0 00.098-.219.71.71 0 00-.049-.409c-.05-.127-.127-.226-.198-.318a2.257 2.257 0 00-.649-.268 3.492 3.492 0 00-.733-.077v-.05h1.481l.127-.31v-.141c-.275-.07-.55-.148-.825-.177-.275-.02-.579-.049-.854-.07l-.078-.459-.176-.099-.17.022c-.098.028-.155.098-.155.197 0 .127 0 .219-.02.318-.325 0-.657 0-.981.02-.325.022-.65.071-.946.15l-.099.14c.021.078.021.127.05.205.02.063.05.14.098.19H23.2v.064c-.275.028-.55.05-.832.077-.275.05-.544.149-.77.269a.564.564 0 00-.176.218c-.05.1-.099.198-.127.268a.666.666 0 000 .29c.028.091.05.19.127.268.226.19.501.282.826.31.296.021.6.05.924.07v.226c-.247.015-.494.015-.755.036a6.85 6.85 0 00-.748.127l-.099.148v.17l.149.169h1.333l.021-.029h.1v.269c-.375 0-.728 0-1.08.02-.374.029-.72.057-1.066.107l-.077.14.049.318.6.099h1.129l.472.021v.162h-1.453l-.028.029-.12.247.05.183c.246.078.5.099.768.127.261.021.508.05.783.05v.352h-.127l-.275.261.028.127zm1.553-1.594l-.127.028h-.705v-.162l.804-.028h.056l-.028.098zm-.028-.847l-.021.028h-.783l.028-.218c.148 0 .296.028.43.05.127.027.226.077.346.14zM23.2 24.168h-.656a1.79 1.79 0 01-.649-.098l.05-.233.6-.127h.655zM24.78 24c-.105.05-.204.07-.303.099-.12.021-.233.021-.352.05h-.226l-.028-.297v-.113l.882.141zM32.076 28.204c.099.028.198 0 .275-.028a.842.842 0 00.219-.12c.106-.198.176-.423.205-.677.02-.22.02-.473.049-.699v-.691c-.028-.226-.099-.43-.275-.6l-.501-.205h-.72a2.011 2.011 0 00-.649.177c-.077.077-.148.148-.197.226a.486.486 0 00-.106.324c-.021.346 0 .699.028 1.023.028.325.05.67.099.995l.148.099c.078 0 .127 0 .176-.021.05 0 .1-.029.148-.05l.078-.473.148.022.776-.078h.149a.721.721 0 010 .303.765.765 0 01-.149.247v.149zm-3.365-.522l.324-.05c.021-.324.05-.677.07-1.022.029-.353.029-.699.029-1.052h.05l.345.325.402-.325v-.099c-.077-.148-.148-.296-.247-.444-.127-.127-.254-.254-.402-.325l-.099.05h-.049v-.847c-.028-.275-.05-.529-.078-.797l-.197-.106-.297.078-.127 1.298v2.47l.071.768zm3.436-.776h-.445c-.176 0-.324.028-.473.05h-.176v-.325l.946-.07h.148zm-4.46-.819l.198-.098a1.73 1.73 0 00.325-.403c.077-.148.148-.296.176-.472l-.028-.198-.374-.176-.12.021-.48.875c0 .099.057.176.127.247.078.077.127.127.177.204zm4.41-.028l-.12-.02-.748.048h-.155v-.155l.43-.05h.318c.106.029.205.05.275.078zm-1.545-1.093c.423 0 .875 0 1.298-.029.424-.02.826-.049 1.25-.098l.07-.177v-.324c-.226-.05-.424-.07-.65-.1-.218-.02-.472-.02-.698-.02l.028-.325c.177 0 .325 0 .501-.028.148-.021.297-.05.445-.07l.028-.106-.028-.396c-.148-.028-.297-.049-.473-.077-.176-.021-.325-.021-.5-.021v-.149l.747-.077.106-.148v-.325c-.127-.077-.254-.099-.402-.127-.177-.021-.325-.021-.501-.021v-.275l-.268-.099H31.3c-.07.021-.099.07-.099.148-.021.07-.021.148-.021.226-.155.021-.303.021-.452.021-.148.028-.296.05-.423.099l-.05.148.05.353.826.077v.17c-.156.028-.304.028-.43.05a1.272 1.272 0 00-.424.154l.028.374c.07.1.198.149.374.12.176-.02.325-.02.473 0l.028.275v.05l-1.1.099c-.05.028-.078.049-.078.098-.022.05-.022.106-.05.156l.05.268z" style="-inkscape-font-specification:KFhimaji"/></g><path d="M1.476 9.646C.997 9.525.419 9.074.197 8.648.056 8.378 0 8.096 0 7.656c0-.8.324-1.389.97-1.77.42-.246.526-.263 1.746-.294l1.3-.033v-.504c0-.431-.036-.531-.25-.7-.48-.378-.889-.261-1.431.41-.096.118-.31.15-.997.15-.978 0-1.102-.06-1.102-.542 0-.73.639-1.415 1.653-1.774.69-.244 2.103-.216 2.844.057.777.286 1.398.928 1.54 1.592.06.278.105 1.434.105 2.683 0 2.741.056 2.615-1.168 2.615-.954 0-1.1-.065-1.1-.491 0-.343-.142-.336-.443.022-.132.158-.362.35-.51.426-.335.173-1.254.251-1.681.143zM3.83 7.889c.13-.118.186-.29.186-.578V6.9h-.64c-.752 0-1.062.16-1.06.548.002.298.071.418.33.572.255.152.956.074 1.184-.132zM8.28 9.594c-.131-.13-.15-.669-.15-4.488 0-4.214.006-4.345.19-4.529.18-.18.315-.189 2.875-.189 2.316 0 2.707.02 2.835.149.114.113.149.355.149 1.036 0 .78-.022.9-.183.985-.106.057-.865.098-1.796.098h-1.612v1.512h1.205c1.653.003 1.67.013 1.704 1.064.041 1.24.088 1.203-1.542 1.203h-1.367v1.54c0 1.073-.035 1.575-.114 1.654-.182.182-2.007.153-2.195-.035zM15.91 9.573c-.889-.317-1.543-.967-1.787-1.778-.185-.616-.18-2.774.008-3.407.188-.63.767-1.275 1.445-1.609.494-.242.63-.265 1.58-.263.94.002 1.09.027 1.576.264a2.783 2.783 0 011.343 1.383c.176.38.199.604.199 1.942 0 1.463-.008 1.53-.264 2.049a2.76 2.76 0 01-1.385 1.337c-.616.278-2.044.321-2.714.082zm1.883-2.2c.136-.166.165-.393.165-1.268 0-1.316-.104-1.512-.803-1.512-.367 0-.48.045-.67.265-.208.243-.228.346-.228 1.231 0 1.03.096 1.311.507 1.486.307.13.843.025 1.029-.202zM23.034 9.646c-.765-.193-1.535-.785-1.893-1.456-.181-.341-.208-.561-.237-1.965-.03-1.511-.022-1.602.199-2.085.488-1.067 1.331-1.588 2.677-1.653 1.051-.05 1.707.116 2.333.594.87.664 1.164 1.586 1.085 3.392-.04.88-.09 1.16-.285 1.58-.501 1.076-1.36 1.6-2.707 1.652-.448.017-.975-.01-1.172-.06zm1.61-2.318c.192-.219.212-.338.212-1.265 0-1.291-.103-1.47-.85-1.47-.752 0-.85.175-.85 1.506 0 .979.016 1.075.212 1.253.117.107.276.218.354.249.263.102.708-.03.922-.273zM29.07 9.914c-.483-.134-1.113-.767-1.263-1.269-.076-.254-.116-1.076-.116-2.369 0-1.972.001-1.982.26-2.493.284-.56.676-.878 1.286-1.042.74-.199 1.688.141 2.057.738.106.171.231.31.28.31.049 0 .086-.746.086-1.74 0-1.458.024-1.766.148-1.89.113-.113.352-.149.993-.149 1.337 0 1.221-.464 1.221 4.893 0 3.933-.019 4.542-.147 4.724-.134.192-.224.21-1.033.21-1.01 0-1.182-.09-1.182-.62 0-.408-.12-.412-.366-.014-.382.619-1.395.942-2.225.711zm2.205-2.2c.147-.075.294-.206.326-.29.109-.284.059-2.067-.062-2.225-.339-.44-.915-.482-1.304-.094-.266.267-.276.308-.276 1.177 0 .495.047 1.005.105 1.132.19.416.73.55 1.211.3zM.264 20.223c-.106-.105-.136-.234-.094-.401.034-.136.522-1.926 1.085-3.979s1.071-3.911 1.13-4.13c.18-.68.203-.69 1.942-.69 1.28 0 1.571.026 1.694.15a.76.76 0 01.149.178c0 .017.531 1.956 1.181 4.31.65 2.355 1.181 4.335 1.181 4.401 0 .067-.082.165-.183.219-.223.12-2.08.128-2.265.01-.073-.046-.206-.375-.296-.73l-.163-.647h-2.69l-.163.647c-.09.355-.223.684-.296.73-.073.047-.566.086-1.095.086-.768.001-.993-.03-1.117-.154zm4.81-3.79c-.33-1.637-.677-2.905-.796-2.905-.097 0-.22.378-.432 1.337-.163.735-.324 1.447-.358 1.583l-.062.245h1.7zM9.726 20.223c-.06-.111-.098-1.07-.098-2.456v-2.275H9.16c-.59 0-.665-.12-.665-1.075 0-.626.025-.726.21-.856.116-.081.367-.147.558-.147.338 0 .349-.01.395-.402.073-.62.378-1.542.586-1.773.347-.383.85-.564 1.741-.628.703-.05.89-.033 1.089.098.222.145.24.212.24.853 0 .788-.047.857-.64.933-.524.066-.682.206-.682.6 0 .317.002.319.451.319.256 0 .543.063.662.147.185.13.21.23.21.856 0 .985-.064 1.075-.755 1.075H12l-.028 2.366c-.024 1.98-.052 2.38-.17 2.456-.078.049-.555.09-1.06.09-.812.002-.93-.02-1.016-.18zM15.144 20.223c-.1-.12-.136-.678-.158-2.456l-.028-2.301h-.402c-.22 0-.452-.051-.515-.114-.07-.07-.113-.423-.113-.941 0-.93.064-1.024.702-1.024.313 0 .337-.02.337-.288 0-.159.058-.403.13-.544.07-.14.18-.474.243-.741.127-.542.352-.802.89-1.026.463-.194 1.816-.29 2.163-.153.252.099.26.122.258.836 0 .404-.033.782-.07.84-.039.057-.28.127-.537.155-.52.057-.714.236-.714.655 0 .256.017.266.478.266.793 0 .845.063.845 1.024 0 .518-.043.87-.114.941-.062.063-.36.114-.661.114h-.548v2.343c0 1.697-.032 2.375-.114 2.457-.072.073-.442.113-1.028.113-.734 0-.94-.03-1.044-.156zM20.422 20.223c-.855-.304-1.351-1.148-1.261-2.144.067-.742.406-1.25 1.058-1.586.42-.216.6-.245 1.724-.274l1.255-.033v-.496c0-.575-.166-.786-.684-.87-.407-.066-.687.075-.877.442l-.145.281h-.993c-.937 0-.997-.012-1.07-.208-.108-.292.051-.913.326-1.273.128-.168.512-.442.866-.616.556-.274.745-.317 1.527-.346 1.545-.057 2.679.427 3.116 1.331.19.393.202.557.202 2.966 0 1.857-.031 2.58-.114 2.663-.154.154-1.793.154-1.946 0-.063-.063-.114-.233-.114-.378 0-.345-.142-.335-.45.032-.501.595-1.557.817-2.42.51zm2.544-1.7c.17-.169.232-.333.232-.613v-.383l-.59.001c-.793.002-1.056.143-1.093.583-.036.434.229.644.81.644.308 0 .466-.057.64-.231zM26.58 20.17c-.137-.137-.16-6.467-.025-6.682.11-.172 1.55-.257 1.92-.113l.26.101v3.29c0 2.434-.03 3.321-.113 3.405-.155.154-1.887.154-2.041 0zM26.822 12.9c-.788-.49-.686-1.895.164-2.25.975-.408 1.938.146 1.938 1.114 0 .855-.461 1.303-1.337 1.298-.308-.002-.607-.065-.765-.163zM29.929 20.101c-.062-.115-.098-1.347-.098-3.349 0-3.737-.096-3.46 1.202-3.46.94 0 1.16.143 1.16.756 0 .208.035.378.076.378.042 0 .17-.192.283-.427.233-.48.678-.8 1.111-.801.455-.001.515.132.515 1.145 0 1.048-.087 1.217-.624 1.217-.412 0-.88.195-1.124.469-.172.192-.193.383-.236 2.142-.039 1.578-.074 1.948-.19 2.02-.077.05-.554.091-1.06.092-.81 0-.928-.02-1.015-.182z"/></g></svg>