<svg xmlns="http://www.w3.org/2000/svg" width="756.507" height="549.189" viewBox="0 0 200.159 145.306"><path d="M144.375 93.238a73.342 39.127 0 01-45.765 49.616 73.342 39.127 0 01-93.062-24.35 73.342 39.127 0 0145.523-49.68 73.342 39.127 0 0193.18 24.221"/><path d="M144.536 86.496a74.159 39.127 0 01-46.275 49.616 74.159 39.127 0 01-94.1-24.35 74.159 39.127 0 0146.03-49.68 74.159 39.127 0 0194.22 24.222" fill="#fff"/><path d="M143.762 79.444a73.342 39.127 0 01-45.765 49.616 73.342 39.127 0 01-93.062-24.35 73.342 39.127 0 0145.523-49.68 73.342 39.127 0 0193.18 24.221"/><path d="M143.974 70.668a73.342 39.127 0 01-45.765 49.615 73.342 39.127 0 01-93.062-24.35 73.342 39.127 0 0145.522-49.679 73.342 39.127 0 0193.181 24.221" fill="#1a1a1a"/><path d="M134.416 71.616a63.231 33.733 0 01-39.456 42.777 63.231 33.733 0 01-80.233-20.994 63.231 33.733 0 0139.247-42.83A63.231 33.733 0 01134.31 71.45"/><path d="M98.7 74.813a24.675 13.164 0 01-15.397 16.693 24.675 13.164 0 01-31.31-8.192A24.675 13.164 0 0167.307 66.6a24.675 13.164 0 0131.35 8.149" fill="#1a1a1a"/><g><path d="M144.216 62.787a73.342 39.127 0 01-45.765 49.616A73.342 39.127 0 015.39 88.053a73.342 39.127 0 0145.523-49.68 73.342 39.127 0 0193.18 24.222"/><path d="M144.377 56.045a74.159 39.127 0 01-46.275 49.616 74.159 39.127 0 01-94.1-24.35 74.159 39.127 0 0146.03-49.68 74.159 39.127 0 0194.22 24.222" fill="#fff"/><path d="M143.603 48.993a73.342 39.127 0 01-45.765 49.616 73.342 39.127 0 01-93.062-24.35 73.342 39.127 0 0145.523-49.68 73.342 39.127 0 0193.18 24.221"/><path d="M143.815 40.217A73.342 39.127 0 0198.05 89.833a73.342 39.127 0 01-93.062-24.35 73.342 39.127 0 0145.522-49.68 73.342 39.127 0 0193.181 24.221" fill="#1a1a1a"/><path d="M134.257 41.165a63.231 33.733 0 01-39.456 42.777 63.231 33.733 0 01-80.233-20.994 63.231 33.733 0 0139.247-42.83 63.231 33.733 0 0180.336 20.881"/><path d="M98.54 44.363a24.675 13.164 0 01-15.397 16.692 24.675 13.164 0 01-31.31-8.192A24.675 13.164 0 0167.15 36.149a24.675 13.164 0 0131.35 8.149" fill="#1a1a1a"/></g><g><path d="M175.676 133.211a73.342 39.127 61.455 01-65.453-16.492 73.342 39.127 61.455 01-23.08-93.386 73.342 39.127 61.455 0165.393 16.25 73.342 39.127 61.455 0123.25 93.427"/><path d="M181.675 130.13a74.159 39.127 61.455 01-65.697-16.94 74.159 39.127 61.455 01-23.576-94.296 74.159 39.127 61.455 0165.636 16.695 74.159 39.127 61.455 0123.746 94.34" fill="#fff"/><path d="M187.5 126.081a73.342 39.127 61.455 01-65.453-16.492 73.342 39.127 61.455 01-23.08-93.386 73.342 39.127 61.455 0165.393 16.25 73.342 39.127 61.455 0123.25 93.428"/><path d="M195.31 122.073a73.342 39.127 61.455 01-65.453-16.492 73.342 39.127 61.455 01-23.08-93.386 73.342 39.127 61.455 0165.394 16.25 73.342 39.127 61.455 0123.25 93.428" fill="#1a1a1a"/><path d="M189.91 114.131a63.231 33.733 61.455 01-56.43-14.219A63.231 33.733 61.455 01113.58 19.4a63.231 33.733 61.455 0156.38 14.01 63.231 33.733 61.455 0120.044 80.548"/><path d="M170.035 84.284a24.675 13.164 61.455 01-22.022-5.549 24.675 13.164 61.455 01-7.765-31.419 24.675 13.164 61.455 0122.001 5.467 24.675 13.164 61.455 017.823 31.433" fill="#1a1a1a"/></g></svg>