<svg xmlns="http://www.w3.org/2000/svg" xmlns:xlink="http://www.w3.org/1999/xlink" width="755.906" height="557.934" viewBox="0 0 200 147.62"><defs><linearGradient id="d"><stop offset="0" stop-color="#483e37"/><stop offset="1" stop-color="#483e37" stop-opacity=".065"/></linearGradient><linearGradient id="c"><stop offset="0" stop-color="#1a1a1a"/><stop offset="1" stop-color="#1a1a1a" stop-opacity="0"/></linearGradient><linearGradient id="b"><stop offset="0" stop-color="#f5d48c"/><stop offset="1" stop-color="#f5d48c" stop-opacity="0"/></linearGradient><linearGradient id="a"><stop offset="0" stop-color="#b0793a"/><stop offset="1" stop-color="#b0793a" stop-opacity="0"/></linearGradient><linearGradient xlink:href="#a" id="f" x1="-274.411" y1="102.72" x2="-199.303" y2="102.7" gradientUnits="userSpaceOnUse" gradientTransform="matrix(.27274 0 0 1.16045 -104.286 -178.29)"/><linearGradient xlink:href="#b" id="e" x1="-385.589" y1="123.275" x2="-85.34" y2="123.275" gradientUnits="userSpaceOnUse" gradientTransform="matrix(.59178 0 0 .55849 79.474 100.432)"/><linearGradient xlink:href="#c" id="g" x1="-385.589" y1="123.275" x2="-85.34" y2="123.275" gradientUnits="userSpaceOnUse" gradientTransform="matrix(.59178 0 0 .55849 87.226 348.268)"/><linearGradient xlink:href="#d" id="h" x1="-274.411" y1="102.72" x2="-199.303" y2="102.7" gradientUnits="userSpaceOnUse" gradientTransform="matrix(.27274 0 0 1.16045 -166.353 -498.582)"/></defs><path d="M198.538 72.297a101.182 71.864 12.505 01-81.37 75.298A101.182 71.864 12.505 011.506 76.133 101.182 71.864 12.505 0182.577.65a101.182 71.864 12.505 01115.87 71.265" fill="#483e37"/><path d="M25.034 22.322S13.273 37.371 13.273 44.72s5.513 16.098 5.513 16.098 6.984 3.5 9.924 9.799c2.94 6.299 11.394 21.697 18.745 24.497 7.351 2.8 16.173-1.4 19.48.35 3.309 1.75 2.941 6.299 6.616 6.999 3.676.7 8.822-3.15 10.66-1.4 1.837 1.75 16.907 12.598 29.404 13.298 12.497.7 24.993-10.498 32.344-10.149 7.352.35 12.497 1.75 18.01-.35 5.514-2.1 8.822-11.548 13.6-11.548 4.778 0 14.335-1.05 16.172-7.35 1.838-6.298 2.206-16.447-.735-21.347-2.94-4.899-17.275-23.097-17.275-23.097s-21.318-17.848-33.08-22.047C130.89 14.273 112.88 7.974 94.87 6.924c-18.01-1.05-37.858-.7-46.68 2.8-8.82 3.5-23.156 12.598-23.156 12.598z" fill="none" stroke="#f9f9f9" stroke-width="9.489"/><path d="M24.667 17.572S12.56 33.676 12.56 41.541c0 7.865 5.675 17.227 5.675 17.227s7.187 3.746 10.214 10.487c3.026 6.741 11.727 23.22 19.292 26.216 7.566 2.996 16.645-1.498 20.05.374 3.405 1.873 3.026 6.741 6.81 7.49 3.782.75 9.078-3.37 10.97-1.498 1.891 1.873 17.401 13.483 30.263 14.232 12.862.749 25.724-11.236 33.29-10.861 7.566.374 12.862 1.872 18.536-.375 5.674-2.247 9.08-12.358 13.997-12.358 4.918 0 14.753-1.124 16.645-7.865 1.891-6.741 2.27-17.602-.757-22.845-3.026-5.244-17.78-24.718-17.78-24.718s-21.94-19.1-34.046-23.594c-12.105-4.495-30.642-11.236-49.178-12.36C78.006-.03 57.578.346 48.5 4.09S24.667 17.572 24.667 17.572z" fill="#1a1a1a"/><path d="M32.003 400.652a88.84 51.184 0 01-55.436 64.906 88.84 51.184 0 01-112.73-31.854 88.84 51.184 0 0155.144-64.988A88.84 51.184 0 0131.853 400.4" transform="rotate(12.505 1685.307 948.736)" fill="url(#g)"/><path d="M21.556 49.622l10.023-4.944M53.999 69.583l6.327-9.212M171.58 67.601l-6.586-9.028M122.785 96.234l-1.22-11.11M95.975 12.118l5.53 9.712M84.669 82.036l10.296-4.346M64.204 26.115l6.328-9.211M141.663 35.222l-7.227-8.526" fill="#f9f9f9" stroke="#f9f9f9" stroke-width="5" stroke-linecap="round"/><path d="M83.964 44.143s8.82-3.474 12.294-2.94c3.475.535 5.88 4.544 7.484 4.811 1.603.267 7.75-2.138 10.958.267 3.207 2.406 2.94 7.216 5.078 8.553 2.138 1.336 4.544 4.543 4.544 6.682" fill="none" stroke="#f9f9f9" stroke-width="4" stroke-linecap="round"/><path d="M107.953 67.158a16.94 6.482 19.94 01-20.648-8.455 16.94 6.482 19.94 012.528-8.206 16.94 6.482 19.94 0121.277 6.415 16.94 6.482 19.94 012.761 9.8" fill="#f9f9f9" stroke="#f9f9f9" stroke-width="7.028" stroke-linecap="round" stroke-linejoin="round" stroke-opacity=".02"/></svg>