<?xml version="1.0" encoding="UTF-8" standalone="no"?>
<!-- Generator: Adobe Illustrator 19.0.0, SVG Export Plug-In . SVG Version: 6.00 Build 0)  -->

<svg
   xmlns:dc="http://purl.org/dc/elements/1.1/"
   xmlns:cc="http://creativecommons.org/ns#"
   xmlns:rdf="http://www.w3.org/1999/02/22-rdf-syntax-ns#"
   xmlns:svg="http://www.w3.org/2000/svg"
   xmlns="http://www.w3.org/2000/svg"
   xmlns:sodipodi="http://sodipodi.sourceforge.net/DTD/sodipodi-0.dtd"
   xmlns:inkscape="http://www.inkscape.org/namespaces/inkscape"
   version="1.1"
   id="Layer_1"
   x="0px"
   y="0px"
   viewBox="0 0 402.369 457.503"
   xml:space="preserve"
   sodipodi:docname="TrashIco.svg"
   width="402.36899"
   height="457.50299"
   inkscape:version="0.92.3 (2405546, 2018-03-11)"><metadata
   id="metadata43"><rdf:RDF><cc:Work
       rdf:about=""><dc:format>image/svg+xml</dc:format><dc:type
         rdf:resource="http://purl.org/dc/dcmitype/StillImage" /><dc:title></dc:title></cc:Work></rdf:RDF></metadata><defs
   id="defs41" /><sodipodi:namedview
   pagecolor="#ffffff"
   bordercolor="#666666"
   borderopacity="1"
   objecttolerance="10"
   gridtolerance="10"
   guidetolerance="10"
   inkscape:pageopacity="0"
   inkscape:pageshadow="2"
   inkscape:window-width="1920"
   inkscape:window-height="1043"
   id="namedview39"
   showgrid="false"
   inkscape:zoom="0.51584362"
   inkscape:cx="207.00021"
   inkscape:cy="228.7515"
   inkscape:window-x="0"
   inkscape:window-y="0"
   inkscape:window-maximized="1"
   inkscape:current-layer="g6" />
<g
   id="g6"
   transform="translate(-27.567)">
	<g
   id="g4"
   style="fill:#483e37">
		<path
   d="M 381.575,57.067 H 291.344 C 288.404,25.111 261.461,0 228.752,0 196.043,0 169.1,25.111 166.16,57.067 H 75.929 c -26.667,0 -48.362,21.695 -48.362,48.362 0,26.018 20.655,47.292 46.427,48.313 v 246.694 c 0,31.467 25.6,57.067 57.067,57.067 h 195.381 c 31.467,0 57.067,-25.6 57.067,-57.067 V 153.741 c 25.772,-1.02 46.427,-22.294 46.427,-48.313 0,-26.667 -21.694,-48.361 -48.361,-48.361 z m -215.734,319.75 c 0,8.013 -6.496,14.509 -14.508,14.509 -8.013,0 -14.508,-6.496 -14.508,-14.509 V 186.113 c 0,-8.013 6.496,-14.508 14.508,-14.508 8.013,0 14.508,6.496 14.508,14.508 z m 77.419,0 c 0,8.013 -6.496,14.509 -14.508,14.509 -8.013,0 -14.508,-6.496 -14.508,-14.509 V 186.113 c 0,-8.013 6.496,-14.508 14.508,-14.508 8.013,0 14.508,6.496 14.508,14.508 z m 77.419,0 c 0,8.013 -6.496,14.509 -14.508,14.509 -8.013,0 -14.509,-6.496 -14.509,-14.509 V 186.113 c 0,-8.013 6.496,-14.508 14.509,-14.508 8.013,0 14.508,6.496 14.508,14.508 z"
   id="path2"
   style="fill:#483e37"
   inkscape:connector-curvature="0" />
	</g>
</g>
<g
   id="g8"
   transform="translate(-27.567)">
</g>
<g
   id="g10"
   transform="translate(-27.567)">
</g>
<g
   id="g12"
   transform="translate(-27.567)">
</g>
<g
   id="g14"
   transform="translate(-27.567)">
</g>
<g
   id="g16"
   transform="translate(-27.567)">
</g>
<g
   id="g18"
   transform="translate(-27.567)">
</g>
<g
   id="g20"
   transform="translate(-27.567)">
</g>
<g
   id="g22"
   transform="translate(-27.567)">
</g>
<g
   id="g24"
   transform="translate(-27.567)">
</g>
<g
   id="g26"
   transform="translate(-27.567)">
</g>
<g
   id="g28"
   transform="translate(-27.567)">
</g>
<g
   id="g30"
   transform="translate(-27.567)">
</g>
<g
   id="g32"
   transform="translate(-27.567)">
</g>
<g
   id="g34"
   transform="translate(-27.567)">
</g>
<g
   id="g36"
   transform="translate(-27.567)">
</g>
</svg>