<svg xmlns="http://www.w3.org/2000/svg" xmlns:xlink="http://www.w3.org/1999/xlink" width="3652.048" height="3508.762" viewBox="0 0 966.271 928.36"><defs><radialGradient xlink:href="#a" id="c" cx="1699.683" cy="730.917" fx="1699.683" fy="730.917" r="96.322" gradientTransform="matrix(1 0 0 .5055 0 361.437)" gradientUnits="userSpaceOnUse"/><radialGradient xlink:href="#b" id="d" cx="1249.451" cy="736.77" fx="1249.451" fy="736.77" r="103.099" gradientTransform="matrix(1 0 0 .47702 0 385.315)" gradientUnits="userSpaceOnUse"/><linearGradient id="b"><stop offset="0" stop-color="#e9afaf"/><stop offset="1" stop-color="#e9afaf" stop-opacity="0"/></linearGradient><linearGradient id="a"><stop offset="0" stop-color="#e9afaf"/><stop offset="1" stop-color="#e9afaf" stop-opacity="0"/></linearGradient></defs><path d="M699.021 20.047a74.454 83.75 0 00-21.887 4.515 74.454 83.75 0 00-27.707 19.295 95.93 141.672 0 00-70.916-5.187 95.93 141.672 0 00-33.952 30.233 199.02 216.03 0 00-187.151-34.015 199.02 216.03 0 00-74.337 50.05 153.918 176.894 0 00-157.976-41.22A153.918 176.894 0 0029.56 268.32a153.918 176.894 0 0019.175 43.45 143.18 149.499 0 001.722 90.908A143.18 149.499 0 0057.85 420.7a202.6 179.242 0 00-27.094 162.25 202.6 179.242 0 00257.077 111.552 202.6 179.242 0 00107.484-76.538 133.157 154.978 0 00161.467 76.272 133.157 154.978 0 0042.286-27.684 226.94 241.86 0 00192.025 23.03 226.94 241.86 0 00141.609-306.697l-.382-1.19A226.94 241.86 0 00895.26 310.3a114.544 122.104 0 0041.983-138.586l-.192-.6a114.544 122.104 0 00-145.53-75.588 114.544 122.104 0 00-15.768 7.34 74.454 83.75 0 00-3.9-26.048l-.125-.412a74.454 83.75 0 00-72.707-56.36z" fill="#f9f9f9" stroke="#f9f9f9" stroke-width="40.011" stroke-linecap="round" stroke-linejoin="round"/><path d="M884.427 712.737a64.811 67.152 0 00-19.053 3.62 64.811 67.152 0 00-39.413 39.445 45.842 47.402 0 00-42.938-7.339 45.842 47.402 0 00-28.454 60.186 45.842 47.402 0 0032.293 30.587 61.65 60.832 0 001.756 33.018 61.65 60.832 0 0078.227 37.858 61.65 60.832 0 0040.962-66.866 64.811 67.152 0 0040.02-84.989l-.11-.33a64.811 67.152 0 00-63.29-45.19z" fill="#f9f9f9" stroke="#f9f9f9" stroke-width="30" stroke-linecap="round" stroke-linejoin="round"/></svg>