<svg xmlns="http://www.w3.org/2000/svg" width="129.177" height="107.238" viewBox="0 0 34.178 28.373"><g aria-label="a Food Af fair" style="line-height:1.25;-inkscape-font-specification:Aquino" font-weight="800" font-size="14.111" font-family="Config Rounded" letter-spacing="0" word-spacing="0" fill="#241f1c" stroke-width=".265"><path d="M-14.876-44.882c-.902 0-1.647.2-2.232.599-.586.4-.875.903-.875 1.516 0 .344.172.517.523.517h1.337c.234 0 .407-.124.51-.366.103-.282.33-.42.689-.42.227 0 .406.062.544.186s.207.29.207.496v.648h-1.75c-.696 0-1.254.2-1.674.592-.42.393-.634.91-.634 1.55 0 .642.206 1.151.62 1.53.413.38.944.565 1.598.565.896-.007 1.489-.317 1.778-.937h.138v.241c0 .352.172.524.523.524h1.282c.351 0 .524-.172.524-.524v-4.333c0-.71-.283-1.282-.848-1.716-.565-.434-1.316-.648-2.26-.648zm-.158 5.725c-.235 0-.42-.048-.565-.151a.484.484 0 01-.214-.42c0-.16.062-.29.18-.393.116-.104.275-.152.475-.152h.985v.524a.51.51 0 01-.241.434c-.159.11-.365.165-.62.165zM-4.167-47.155h-4.954c-.393 0-.593.2-.593.593v8.268c0 .393.2.593.593.593h1.357c.393 0 .593-.2.593-.593v-2.721h2.315c.393 0 .593-.2.593-.593v-1.158c0-.392-.2-.592-.593-.592h-2.315v-1.468h3.004c.393 0 .593-.193.593-.579v-1.157c0-.393-.2-.593-.593-.593zM-.68-37.714c.97 0 1.75-.268 2.335-.813.586-.544.875-1.26.875-2.156v-1.461c0-.896-.29-1.612-.875-2.157-.586-.544-1.364-.813-2.336-.813-.971 0-1.75.269-2.336.813-.585.545-.882 1.261-.882 2.157v1.46c0 .896.297 1.613.882 2.157.586.545 1.365.813 2.336.813zm-.008-2.205c-.248 0-.448-.068-.6-.206a.717.717 0 01-.227-.558v-1.461c0-.241.076-.427.228-.565.151-.138.351-.207.6-.207.247 0 .44.07.585.207.144.138.213.324.213.558v1.46c0 .242-.075.428-.22.566-.145.138-.338.206-.586.206zM6.192-37.73c.972 0 1.75-.268 2.336-.813.586-.544.875-1.26.875-2.156v-1.46c0-.897-.29-1.613-.875-2.158-.586-.544-1.364-.813-2.336-.813-.971 0-1.75.27-2.336.813-.585.545-.882 1.261-.882 2.157v1.46c0 .897.297 1.613.882 2.157.586.545 1.365.814 2.336.814zm-.007-2.204c-.248 0-.448-.07-.6-.207a.717.717 0 01-.227-.558v-1.46c0-.242.076-.428.228-.566.151-.138.351-.207.6-.207.247 0 .44.07.585.207.144.138.213.324.213.558v1.461c0 .241-.075.427-.22.565-.145.138-.338.207-.586.207zM15.686-47.535H14.33c-.344 0-.517.172-.517.523v3.218h-.13a1.788 1.788 0 00-.683-.785c-.31-.2-.675-.303-1.088-.303-.627 0-1.137.213-1.53.633-.393.42-.593.972-.593 1.647v2.853c0 .675.2 1.226.593 1.646.393.42.903.634 1.53.634a1.95 1.95 0 001.081-.303c.31-.2.538-.461.683-.785h.13v.392c-.007.352.166.524.517.524h1.358c.351 0 .523-.172.523-.524v-8.833c0-.351-.172-.523-.523-.523zm-2.7 7.82c-.242 0-.435-.069-.58-.207a.737.737 0 01-.22-.558v-1.378c0-.24.076-.427.22-.565.145-.137.338-.206.58-.206.24 0 .44.069.592.213a.713.713 0 01.227.538v1.405c0 .22-.075.4-.227.538-.152.138-.351.206-.592.206zM26.966-38.302l-2.288-8.296c-.075-.338-.289-.51-.647-.51h-2.543c-.337 0-.55.172-.64.51l-2.274 8.296c-.117.434.048.647.496.647h1.564c.31 0 .496-.158.551-.468l.228-1.027h2.61l.242 1.027c.055.31.241.468.551.468h1.66c.435 0 .6-.213.497-.647zm-5.03-3.122l.703-3.148h.158l.717 3.148zM30.348-45.63h.282c.351 0 .524-.173.524-.524v-.93c0-.352-.173-.524-.524-.524h-.958c-.682 0-1.233.193-1.646.579-.414.386-.235 1.031-.62 1.543v.703h-.607c-.344 0-.517.172-.517.524v1.102c-.007.345.166.517.517.517h.606v4.389c0 .351.173.524.524.524h1.357c.352 0 .524-.173.524-.524v-4.39h.827c.351.008.524-.165.524-.516v-1.102c0-.352-.173-.524-.524-.524h-.827v-.296c-.007-.365.172-.552.538-.552zM35.49-45.63h.283c.351 0 .524-.173.524-.524v-.93c0-.352-.173-.524-.524-.524h-.958c-.682 0-1.233.193-1.647.579-.413.386-.234 1.031-.62 1.543v.703h-.606c-.345 0-.517.172-.517.524v1.102c-.007.345.166.517.517.517h.606v4.389c0 .351.172.524.524.524h1.357c.352 0 .524-.173.524-.524v-4.39h.827c.351.008.523-.165.523-.516v-1.102c0-.352-.172-.524-.523-.524h-.827v-.296c-.007-.365.172-.552.537-.552zM39.715-44.955c-.902 0-1.646.2-2.232.6-.586.399-.875.902-.875 1.515 0 .345.172.517.524.517h1.336c.235 0 .407-.124.51-.365.104-.283.33-.42.69-.42.227 0 .406.061.544.185.137.124.337.336.206.496v.648h-1.75c-.696 0-1.254.2-1.674.593-.42.392-.634.91-.634 1.55s.207 1.15.62 1.53c.413.379.944.565 1.599.565.895-.007 1.488-.317 1.777-.938h.138v.242c0 .351.172.523.524.523h1.281c.352 0 .524-.172.524-.523v-4.334c0-.71-.283-1.282-.848-1.716-.565-.434-1.316-.648-2.26-.648zm-.158 5.725c-.234 0-.42-.048-.565-.151a.484.484 0 01-.214-.42c0-.159.062-.29.18-.393.117-.104.275-.152.475-.152h.985v.524a.51.51 0 01-.24.434c-.16.11-.366.165-.621.165zM44.48-45.444c.414 0 .744-.125 1-.373.254-.248.378-.578.378-.992 0-.392-.124-.71-.379-.95-.255-.242-.585-.366-.999-.366-.434 0-.778.124-1.033.365-.255.242-.386.565-.386.972 0 .406.124.737.379.985s.6.372 1.033.372zm-.703 7.73h1.358c.351 0 .523-.172.523-.523v-6.009c0-.351-.172-.523-.523-.523h-1.358c-.344 0-.516.172-.516.523v6.009c-.007.351.165.523.516.523zM49.988-44.92c-.668.054-1.116.475-1.343 1.267h-.124v-.606c0-.352-.173-.524-.524-.524H46.64c-.345 0-.517.172-.517.524v6.008c-.007.351.165.524.517.524h1.357c.351 0 .524-.173.524-.524v-2.832c0-.93.496-1.399 1.495-1.399.351 0 .524-.172.524-.523v-1.4c0-.178-.049-.316-.145-.406-.097-.09-.234-.124-.407-.103z" style="-inkscape-font-specification:'Config Rounded Ultra-Bold'"/></g><text style="line-height:1.25;-inkscape-font-specification:Aquino" x="137.348" y="52.918" font-weight="400" font-size="10.583" font-family="Aquino" letter-spacing="0" word-spacing="0" fill="#241f1c" stroke-width=".265" transform="translate(-153.894 -80.229)"><tspan x="137.348" y="52.918" style="-inkscape-font-specification:'Fredoka One'" font-family="Fredoka One">a Food Affair</tspan></text><text style="line-height:1.25;-inkscape-font-specification:Aquino" x="75.084" y="180.867" font-weight="400" font-size="10.583" font-family="Aquino" letter-spacing="0" word-spacing="0" fill="#483e37" stroke-width=".265" transform="translate(-153.894 -80.229)"><tspan x="75.084" y="180.867" style="-inkscape-font-specification:KFhimaji" font-size="7.056" font-family="KFhimaji">食糧事情</tspan></text><path d="M-118.282 94.056c-.479-.121-1.057-.572-1.279-.997-.141-.271-.197-.553-.197-.993 0-.8.324-1.388.97-1.769.42-.246.526-.264 1.746-.295l1.3-.033v-.503c0-.432-.036-.532-.25-.7-.48-.379-.889-.262-1.431.41-.096.118-.31.15-.997.15-.977 0-1.102-.061-1.102-.542 0-.73.64-1.416 1.654-1.775.69-.244 2.102-.216 2.843.057.778.287 1.398.928 1.54 1.592.06.278.105 1.435.105 2.683 0 2.742.057 2.615-1.168 2.615-.954 0-1.1-.065-1.1-.491 0-.342-.142-.335-.442.022-.133.158-.363.35-.512.427-.334.172-1.253.25-1.68.142zm2.355-1.757c.13-.117.185-.29.185-.578v-.41h-.64c-.752 0-1.062.16-1.06.548.002.298.071.418.33.572.255.153.957.074 1.185-.132zM-111.153 93.713c-.13-.13-.148-.669-.148-4.488 0-4.214.005-4.346.189-4.53.18-.18.315-.188 2.875-.188 2.316 0 2.707.02 2.835.148.114.114.149.356.149 1.036 0 .781-.022.9-.183.986-.106.056-.865.098-1.796.098h-1.612v1.512h1.205c1.653.003 1.67.013 1.704 1.064.041 1.24.088 1.203-1.542 1.203h-1.367v1.54c0 1.072-.035 1.575-.114 1.654-.181.182-2.007.153-2.195-.035zM-103.521 93.692c-.89-.317-1.544-.967-1.788-1.778-.185-.616-.18-2.774.008-3.407.188-.631.767-1.276 1.445-1.609.494-.242.63-.265 1.58-.263.94.002 1.09.027 1.576.264a2.783 2.783 0 011.343 1.383c.176.38.199.604.199 1.942 0 1.463-.008 1.529-.264 2.049a2.76 2.76 0 01-1.385 1.337c-.616.278-2.043.321-2.714.082zm1.882-2.2c.136-.166.165-.393.165-1.268 0-1.316-.104-1.512-.803-1.512-.367 0-.48.045-.67.265-.208.243-.228.346-.228 1.231 0 1.03.096 1.311.507 1.486.307.13.843.025 1.029-.202zM-96.398 93.765c-.765-.193-1.535-.785-1.892-1.456-.182-.341-.209-.562-.238-1.965-.03-1.511-.022-1.603.199-2.085.489-1.068 1.331-1.588 2.677-1.653 1.051-.05 1.707.116 2.333.594.87.664 1.164 1.586 1.085 3.392-.04.88-.09 1.16-.285 1.58-.501 1.076-1.36 1.6-2.707 1.652-.448.017-.975-.01-1.172-.06zm1.61-2.318c.192-.219.212-.338.212-1.265 0-1.291-.103-1.47-.85-1.47-.752 0-.85.175-.85 1.506 0 .978.016 1.074.212 1.253.117.106.277.218.355.249.262.102.707-.03.92-.273zM-90.363 94.033c-.482-.134-1.112-.767-1.262-1.269-.075-.254-.116-1.076-.116-2.369 0-1.973.001-1.982.26-2.493.284-.56.676-.878 1.286-1.042.74-.2 1.689.141 2.057.738.106.17.231.31.28.31.049 0 .086-.746.086-1.74 0-1.458.024-1.766.149-1.89.112-.113.35-.15.992-.15 1.337 0 1.221-.463 1.221 4.894 0 3.933-.019 4.541-.147 4.724-.134.192-.224.21-1.032.21-1.01 0-1.183-.09-1.183-.62 0-.408-.12-.412-.366-.014-.382.619-1.395.942-2.224.711zm2.206-2.2c.147-.075.294-.206.326-.29.109-.284.059-2.067-.062-2.225-.339-.441-.915-.482-1.304-.094-.266.267-.276.308-.276 1.177 0 .495.048 1.005.105 1.132.19.415.73.55 1.211.3zM-82.906 93.801c-.105-.106-.135-.234-.094-.402.034-.135.522-1.926 1.086-3.978.563-2.053 1.07-3.912 1.129-4.13.18-.681.204-.69 1.943-.69 1.279 0 1.571.026 1.694.149a.76.76 0 01.148.179c0 .016.532 1.956 1.182 4.31.65 2.354 1.18 4.335 1.18 4.401 0 .066-.082.165-.182.218-.223.12-2.08.129-2.266.011-.073-.046-.206-.375-.295-.73l-.163-.647h-2.691l-.163.646c-.09.356-.222.685-.296.731-.073.046-.565.085-1.094.086-.768 0-.994-.03-1.118-.154zm4.81-3.79c-.33-1.637-.677-2.906-.795-2.906-.097 0-.22.379-.432 1.337-.164.736-.325 1.448-.359 1.583l-.062.246h1.7zM-74.067 93.679c-.06-.111-.098-1.07-.098-2.457v-2.274h-.469c-.59 0-.665-.12-.665-1.075 0-.626.025-.727.21-.857.116-.08.367-.147.558-.147.338 0 .348-.01.394-.401.074-.621.378-1.542.587-1.773.347-.383.85-.565 1.741-.628.703-.05.889-.033 1.089.097.222.146.24.213.24.853 0 .788-.047.858-.641.933-.523.067-.681.206-.681.6 0 .318.002.32.451.32.256 0 .542.063.661.146.186.13.21.23.21.857 0 .984-.063 1.075-.754 1.075h-.56l-.027 2.366c-.024 1.979-.052 2.38-.17 2.455-.078.05-.555.09-1.06.091-.812.001-.93-.02-1.016-.181zM-68.885 93.706c-.1-.12-.136-.679-.158-2.457l-.029-2.3h-.401c-.221 0-.453-.052-.515-.114-.071-.071-.114-.424-.114-.942 0-.93.065-1.024.703-1.024.313 0 .337-.02.337-.288 0-.158.058-.403.129-.543.07-.14.18-.474.243-.742.128-.542.353-.801.89-1.026.463-.193 1.816-.289 2.163-.153.253.099.26.122.259.836-.001.404-.033.782-.071.84-.038.057-.28.127-.536.155-.52.057-.715.236-.715.656 0 .256.017.265.479.265.792 0 .844.063.844 1.024 0 .518-.042.87-.113.942-.063.062-.36.113-.662.113h-.548v2.344c0 1.696-.031 2.374-.113 2.456-.073.073-.443.114-1.028.114-.735 0-.94-.03-1.044-.156zM-63.9 93.912c-.855-.305-1.352-1.149-1.261-2.144.067-.742.406-1.25 1.058-1.586.42-.216.6-.245 1.723-.275l1.255-.032v-.496c0-.575-.165-.786-.684-.87-.406-.066-.687.075-.876.442l-.145.28h-.993c-.937 0-.997-.011-1.07-.208-.108-.291.05-.912.325-1.272.129-.169.513-.442.866-.616.557-.274.746-.317 1.528-.346 1.545-.058 2.678.426 3.116 1.33.19.393.201.557.201 2.966 0 1.857-.03 2.58-.113 2.663-.154.154-1.793.154-1.947 0-.062-.062-.113-.232-.113-.378 0-.345-.142-.334-.451.033-.5.595-1.556.817-2.42.509zm2.543-1.7c.17-.17.232-.334.232-.614v-.382l-.59.001c-.792.002-1.055.142-1.092.582-.037.434.228.645.81.645.308 0 .466-.057.64-.232zM-58.176 93.748c-.138-.137-.162-6.468-.026-6.683.11-.172 1.55-.256 1.92-.112l.26.1v3.291c0 2.434-.03 3.32-.113 3.404-.155.155-1.887.155-2.041 0zM-57.935 86.477c-.788-.489-.686-1.895.164-2.25.975-.407 1.938.146 1.938 1.114 0 .855-.461 1.303-1.337 1.299-.308-.002-.607-.066-.765-.163zM-55.357 93.679c-.062-.116-.098-1.347-.098-3.35 0-3.736-.096-3.46 1.202-3.46.94 0 1.16.144 1.16.756 0 .208.034.378.076.378.042 0 .169-.192.283-.426.233-.48.678-.801 1.11-.802.456 0 .516.132.516 1.146 0 1.047-.087 1.216-.624 1.216-.412 0-.88.195-1.124.47-.173.192-.194.382-.237 2.142-.038 1.577-.073 1.947-.189 2.02-.078.05-.554.09-1.06.091-.811.001-.929-.02-1.015-.181z" fill="#483e37"/><text style="line-height:1.25;-inkscape-font-specification:Aquino" x="159.709" y="108.017" font-weight="400" font-size="10.583" font-family="Aquino" letter-spacing="0" word-spacing="0" fill="#483e37" stroke-width=".265" transform="translate(-153.894 -80.229)"><tspan x="159.709" y="108.017" style="-inkscape-font-specification:KFhimaji" font-size="7.056" font-family="KFhimaji">食糧事情</tspan></text><path d="M1.476 9.646C.997 9.525.419 9.074.197 8.648.056 8.378 0 8.096 0 7.656c0-.8.324-1.389.97-1.77.42-.246.526-.263 1.746-.294l1.3-.033v-.504c0-.431-.036-.531-.25-.7-.48-.378-.889-.261-1.431.41-.096.118-.31.15-.997.15-.978 0-1.102-.06-1.102-.542 0-.73.639-1.415 1.653-1.774.69-.244 2.103-.216 2.844.057.777.286 1.398.928 1.54 1.592.06.278.105 1.434.105 2.683 0 2.741.056 2.615-1.168 2.615-.954 0-1.1-.065-1.1-.491 0-.343-.142-.336-.443.022-.132.158-.362.35-.51.426-.335.173-1.254.251-1.681.143zM3.83 7.889c.13-.118.186-.29.186-.578V6.9h-.64c-.752 0-1.062.16-1.06.548.002.298.071.418.33.572.255.152.956.074 1.184-.132zM8.28 9.594c-.131-.13-.15-.669-.15-4.488 0-4.214.006-4.345.19-4.529.18-.18.315-.189 2.875-.189 2.316 0 2.707.02 2.835.149.114.113.149.355.149 1.036 0 .78-.022.9-.183.985-.106.057-.865.098-1.796.098h-1.612v1.512h1.205c1.653.003 1.67.013 1.704 1.064.041 1.24.088 1.203-1.542 1.203h-1.367v1.54c0 1.073-.035 1.575-.114 1.654-.182.182-2.007.153-2.195-.035zM15.91 9.573c-.889-.317-1.543-.967-1.787-1.778-.185-.616-.18-2.774.008-3.407.188-.63.767-1.275 1.445-1.609.494-.242.63-.265 1.58-.263.94.002 1.09.027 1.576.264a2.783 2.783 0 011.343 1.383c.176.38.199.604.199 1.942 0 1.463-.008 1.53-.264 2.049a2.76 2.76 0 01-1.385 1.337c-.616.278-2.044.321-2.714.082zm1.883-2.2c.136-.166.165-.393.165-1.268 0-1.316-.104-1.512-.803-1.512-.367 0-.48.045-.67.265-.208.243-.228.346-.228 1.231 0 1.03.096 1.311.507 1.486.307.13.843.025 1.029-.202zM23.034 9.646c-.765-.193-1.535-.785-1.893-1.456-.181-.341-.208-.561-.237-1.965-.03-1.511-.022-1.602.199-2.085.488-1.067 1.331-1.588 2.677-1.653 1.051-.05 1.707.116 2.333.594.87.664 1.164 1.586 1.085 3.392-.04.88-.09 1.16-.285 1.58-.501 1.076-1.36 1.6-2.707 1.652-.448.017-.975-.01-1.172-.06zm1.61-2.318c.192-.219.212-.338.212-1.265 0-1.291-.103-1.47-.85-1.47-.752 0-.85.175-.85 1.506 0 .979.016 1.075.212 1.253.117.107.276.218.354.249.263.102.708-.03.922-.273zM29.07 9.914c-.483-.134-1.113-.767-1.263-1.269-.076-.254-.116-1.076-.116-2.369 0-1.972.001-1.982.26-2.493.284-.56.676-.878 1.286-1.042.74-.199 1.688.141 2.057.738.106.171.231.31.28.31.049 0 .086-.746.086-1.74 0-1.458.024-1.766.148-1.89.113-.113.352-.149.993-.149 1.337 0 1.221-.464 1.221 4.893 0 3.933-.019 4.542-.147 4.724-.134.192-.224.21-1.033.21-1.01 0-1.182-.09-1.182-.62 0-.408-.12-.412-.366-.014-.382.619-1.395.942-2.225.711zm2.205-2.2c.147-.075.294-.206.326-.29.109-.284.059-2.067-.062-2.225-.339-.44-.915-.482-1.304-.094-.266.267-.276.308-.276 1.177 0 .495.047 1.005.105 1.132.19.416.73.55 1.211.3zM.264 20.223c-.106-.105-.136-.234-.094-.401.034-.136.522-1.926 1.085-3.979s1.071-3.911 1.13-4.13c.18-.68.203-.69 1.942-.69 1.28 0 1.571.026 1.694.15a.76.76 0 01.149.178c0 .017.531 1.956 1.181 4.31.65 2.355 1.181 4.335 1.181 4.401 0 .067-.082.165-.183.219-.223.12-2.08.128-2.265.01-.073-.046-.206-.375-.296-.73l-.163-.647h-2.69l-.163.647c-.09.355-.223.684-.296.73-.073.047-.566.086-1.095.086-.768.001-.993-.03-1.117-.154zm4.81-3.79c-.33-1.637-.677-2.905-.796-2.905-.097 0-.22.378-.432 1.337-.163.735-.324 1.447-.358 1.583l-.062.245h1.7zM9.726 20.223c-.06-.111-.098-1.07-.098-2.456v-2.275H9.16c-.59 0-.665-.12-.665-1.075 0-.626.025-.726.21-.856.116-.081.367-.147.558-.147.338 0 .349-.01.395-.402.073-.62.378-1.542.586-1.773.347-.383.85-.564 1.741-.628.703-.05.89-.033 1.089.098.222.145.24.212.24.853 0 .788-.047.857-.64.933-.524.066-.682.206-.682.6 0 .317.002.319.451.319.256 0 .543.063.662.147.185.13.21.23.21.856 0 .985-.064 1.075-.755 1.075H12l-.028 2.366c-.024 1.98-.052 2.38-.17 2.456-.078.049-.555.09-1.06.09-.812.002-.93-.02-1.016-.18zM15.144 20.223c-.1-.12-.136-.678-.158-2.456l-.028-2.301h-.402c-.22 0-.452-.051-.515-.114-.07-.07-.113-.423-.113-.941 0-.93.064-1.024.702-1.024.313 0 .337-.02.337-.288 0-.159.058-.403.13-.544.07-.14.18-.474.243-.741.127-.542.352-.802.89-1.026.463-.194 1.816-.29 2.163-.153.252.099.26.122.258.836 0 .404-.033.782-.07.84-.039.057-.28.127-.537.155-.52.057-.714.236-.714.655 0 .256.017.266.478.266.793 0 .845.063.845 1.024 0 .518-.043.87-.114.941-.062.063-.36.114-.661.114h-.548v2.343c0 1.697-.032 2.375-.114 2.457-.072.073-.442.113-1.028.113-.734 0-.94-.03-1.044-.156zM20.422 20.223c-.855-.304-1.351-1.148-1.261-2.144.067-.742.406-1.25 1.058-1.586.42-.216.6-.245 1.724-.274l1.255-.033v-.496c0-.575-.166-.786-.684-.87-.407-.066-.687.075-.877.442l-.145.281h-.993c-.937 0-.997-.012-1.07-.208-.108-.292.051-.913.325-1.273.13-.168.513-.442.867-.616.556-.274.745-.317 1.527-.346 1.545-.057 2.678.427 3.116 1.331.19.393.202.557.202 2.966 0 1.857-.031 2.58-.114 2.663-.154.154-1.793.154-1.946 0-.063-.063-.114-.233-.114-.378 0-.345-.142-.335-.45.032-.501.595-1.557.817-2.42.51zm2.544-1.7c.17-.169.232-.333.232-.613v-.383l-.59.001c-.793.002-1.056.143-1.093.583-.036.434.229.644.81.644.308 0 .466-.057.64-.231zM26.58 20.17c-.137-.137-.16-6.467-.025-6.682.11-.172 1.55-.257 1.92-.113l.26.101v3.29c0 2.434-.03 3.321-.113 3.405-.155.154-1.887.154-2.041 0zM26.822 12.9c-.788-.49-.686-1.895.164-2.25.975-.408 1.938.146 1.938 1.114 0 .855-.461 1.303-1.337 1.298-.308-.002-.607-.065-.765-.163zM29.929 20.101c-.062-.115-.098-1.347-.098-3.349 0-3.737-.096-3.46 1.202-3.46.94 0 1.16.143 1.16.756 0 .208.035.378.076.378.042 0 .17-.192.283-.427.233-.48.678-.8 1.111-.801.455-.001.515.132.515 1.145 0 1.048-.087 1.217-.624 1.217-.412 0-.88.195-1.124.469-.172.192-.193.383-.236 2.142-.039 1.578-.074 1.948-.19 2.02-.077.05-.554.091-1.06.092-.81 0-.928-.02-1.015-.182z" fill="#483e37"/><text style="line-height:1.25;-inkscape-font-specification:Aquino" x="163.927" y="174.822" font-weight="400" font-size="10.583" font-family="Aquino" letter-spacing="0" word-spacing="0" fill="#483e37" stroke-width=".265" transform="translate(-153.894 -80.229)"><tspan x="163.927" y="174.822" style="-inkscape-font-specification:KFhimaji" font-size="7.056" font-family="KFhimaji">食糧事情</tspan></text><path d="M12.614 66.296c-.479-.122-1.057-.573-1.28-.998-.14-.27-.196-.552-.196-.992 0-.8.323-1.39.97-1.77.42-.246.526-.264 1.746-.294l1.3-.033v-.504c0-.432-.036-.532-.25-.7-.48-.378-.889-.262-1.432.41-.095.118-.31.15-.997.15-.977 0-1.101-.06-1.101-.542 0-.73.639-1.416 1.653-1.775.69-.244 2.103-.215 2.844.058.777.286 1.398.927 1.54 1.592.06.277.105 1.434.105 2.683 0 2.74.056 2.615-1.168 2.615-.954 0-1.1-.066-1.1-.492 0-.342-.142-.335-.443.023-.132.157-.363.35-.51.426-.335.173-1.254.25-1.681.142zm2.354-1.757c.13-.118.185-.29.185-.579v-.41h-.64c-.751 0-1.061.16-1.059.549.002.298.07.418.33.572.255.152.956.074 1.184-.132zM11.124 76.71c-.131-.13-.149-.669-.149-4.488 0-4.214.005-4.346.19-4.53.18-.18.314-.188 2.874-.188 2.317 0 2.707.02 2.835.148.114.114.149.356.149 1.036 0 .781-.022.9-.183.986-.105.056-.864.098-1.795.098h-1.613v1.512h1.205c1.653.003 1.67.013 1.704 1.064.041 1.24.088 1.203-1.542 1.203h-1.367v1.54c0 1.072-.034 1.575-.113 1.654-.182.182-2.008.153-2.195-.035zM18.755 76.69c-.89-.318-1.543-.968-1.787-1.78-.186-.615-.181-2.773.008-3.406.187-.631.766-1.276 1.444-1.609.494-.242.63-.265 1.58-.263.94.002 1.09.027 1.576.264a2.783 2.783 0 011.343 1.383c.176.38.2.604.2 1.942 0 1.463-.009 1.529-.265 2.049a2.76 2.76 0 01-1.385 1.337c-.616.278-2.043.321-2.713.082zm1.882-2.201c.136-.166.166-.393.166-1.268 0-1.316-.105-1.512-.803-1.512-.367 0-.48.045-.67.265-.21.243-.228.346-.228 1.231 0 1.03.095 1.311.506 1.486.307.13.843.025 1.03-.202zM25.879 76.762c-.766-.193-1.536-.785-1.893-1.456-.182-.341-.209-.562-.238-1.965-.03-1.511-.022-1.603.199-2.085.489-1.068 1.332-1.588 2.677-1.653 1.052-.05 1.707.116 2.333.594.87.664 1.165 1.586 1.085 3.392-.039.88-.09 1.16-.285 1.58-.501 1.076-1.36 1.6-2.707 1.652-.447.017-.975-.01-1.171-.06zm1.609-2.318c.193-.219.213-.338.213-1.265 0-1.291-.104-1.47-.85-1.47-.752 0-.851.175-.851 1.506 0 .978.016 1.074.212 1.253.117.106.277.218.355.249.262.102.707-.03.921-.273zM31.914 77.03c-.483-.134-1.113-.767-1.262-1.269-.076-.254-.117-1.076-.117-2.369 0-1.973.001-1.982.26-2.493.284-.56.677-.878 1.286-1.042.74-.2 1.689.141 2.058.738.105.17.23.31.278.31.05 0 .087-.746.087-1.74 0-1.458.024-1.766.149-1.89.113-.113.35-.15.992-.15 1.337 0 1.222-.463 1.222 4.894 0 3.933-.02 4.541-.148 4.724-.134.192-.224.21-1.032.21-1.01 0-1.183-.09-1.183-.62 0-.408-.12-.412-.365-.014-.383.619-1.395.942-2.225.711zm2.205-2.2c.148-.075.294-.206.327-.29.108-.284.058-2.067-.063-2.225-.338-.441-.915-.482-1.303-.094-.267.267-.277.308-.277 1.177 0 .495.048 1.005.106 1.132.19.415.729.55 1.21.3zM10.219 87.69c-.106-.106-.136-.235-.094-.402.033-.136.522-1.926 1.085-3.98.563-2.052 1.07-3.91 1.129-4.13.18-.68.204-.688 1.943-.688 1.279 0 1.571.025 1.694.148a.76.76 0 01.149.179c0 .016.531 1.956 1.18 4.31.65 2.355 1.182 4.335 1.182 4.401 0 .067-.082.165-.183.219-.223.119-2.08.128-2.265.01-.074-.046-.207-.375-.296-.73l-.163-.647h-2.691l-.163.647c-.089.355-.222.684-.295.73-.074.047-.566.085-1.095.086-.768.001-.993-.03-1.117-.154zm4.809-3.79c-.33-1.638-.677-2.906-.795-2.906-.097 0-.22.378-.432 1.337-.163.735-.325 1.447-.359 1.582l-.061.246h1.7zM19.057 87.567c-.06-.111-.098-1.07-.098-2.457v-2.274h-.469c-.59 0-.665-.12-.665-1.075 0-.626.025-.727.21-.856.116-.081.367-.148.558-.148.338 0 .349-.01.395-.401.073-.62.377-1.542.586-1.773.347-.383.85-.565 1.741-.628.703-.05.89-.033 1.089.098.222.145.24.212.24.852 0 .789-.047.858-.64.933-.524.067-.682.207-.682.6 0 .318.002.32.451.32.256 0 .543.063.662.147.185.13.21.23.21.856 0 .985-.064 1.075-.755 1.075h-.56l-.027 2.366c-.024 1.98-.052 2.38-.17 2.456-.078.049-.555.09-1.06.09-.812.001-.93-.02-1.016-.18zM24.239 87.594c-.1-.12-.136-.678-.158-2.457l-.028-2.3h-.402c-.22 0-.453-.052-.515-.114-.071-.071-.113-.423-.113-.942 0-.93.064-1.024.702-1.024.313 0 .337-.02.337-.288 0-.158.058-.403.13-.543.07-.14.18-.474.242-.741.128-.542.353-.802.891-1.027.462-.193 1.816-.289 2.162-.153.253.1.26.122.259.837-.001.404-.033.781-.071.839-.038.057-.28.127-.536.156-.52.057-.715.235-.715.655 0 .256.017.265.479.265.793 0 .844.063.844 1.024 0 .519-.042.871-.113.942-.063.062-.36.113-.662.113h-.548v2.344c0 1.696-.031 2.375-.113 2.457-.073.072-.443.113-1.028.113-.735 0-.94-.03-1.044-.156zM29.224 87.8c-.855-.304-1.351-1.149-1.261-2.144.067-.742.406-1.25 1.058-1.586.42-.216.6-.245 1.724-.274L32 83.763v-.496c0-.575-.166-.786-.685-.87-.406-.066-.686.075-.876.442l-.145.28H29.3c-.937 0-.997-.01-1.07-.207-.108-.292.05-.913.325-1.273.129-.169.513-.442.867-.616.556-.274.745-.317 1.527-.346 1.545-.058 2.678.426 3.116 1.33.19.394.201.558.201 2.966 0 1.858-.03 2.581-.113 2.664-.154.153-1.793.153-1.947 0-.062-.063-.113-.233-.113-.378 0-.345-.142-.335-.451.032-.5.595-1.556.817-2.42.51zm2.544-1.7c.17-.17.232-.334.232-.614v-.382l-.591.001c-.792.002-1.055.142-1.092.583-.036.433.229.644.81.644.308 0 .466-.057.64-.232zM34.948 87.637c-.138-.138-.162-6.468-.026-6.683.11-.172 1.55-.257 1.92-.113l.26.1v3.292c0 2.433-.03 3.32-.113 3.404-.155.154-1.887.154-2.041 0zM35.19 80.365c-.789-.489-.686-1.895.163-2.25.975-.407 1.938.146 1.938 1.115 0 .855-.461 1.303-1.337 1.298-.307-.002-.607-.065-.765-.163zM37.767 87.567c-.062-.115-.098-1.347-.098-3.349 0-3.737-.096-3.46 1.202-3.46.94 0 1.16.143 1.16.755 0 .208.035.378.076.378.042 0 .17-.191.283-.426.233-.48.678-.801 1.11-.802.456 0 .516.133.516 1.146 0 1.047-.087 1.216-.624 1.216-.412 0-.88.195-1.124.47-.172.192-.193.383-.236 2.142-.04 1.578-.074 1.948-.19 2.02-.077.05-.554.09-1.06.092-.81 0-.928-.02-1.015-.182z" fill="#483e37"/><g aria-label="a Food A f fair" style="line-height:1.25;-inkscape-font-specification:Aquino" font-weight="400" font-size="10.583" font-family="Fredoka One" letter-spacing="0" word-spacing="0" fill="#483e37" stroke-width=".265"><path d="M-98.617-7.622q.063-.593.836-.593.413 0 .614.064.2.063.275.222.085.159.095.286.021.116.021.36v3.704q0 .243-.02.37-.011.117-.085.275-.149.275-.73.275-.572 0-.773-.137-.19-.148-.222-.423-.392.56-1.313.56-.91 0-1.693-.836t-.783-1.936q0-1.112.783-1.937.794-.836 1.736-.836.36 0 .656.127.296.127.412.243.117.106.19.212zm-1.926 2.201q0 .35.275.635.275.275.667.275.391 0 .645-.285.265-.286.265-.625 0-.349-.254-.645-.244-.297-.667-.297-.413 0-.677.297-.254.296-.254.645zM-90.417-10.328q.243 0 .36.021.127.01.275.095.159.085.222.286.064.201.064.54 0 .338-.064.54-.063.2-.222.285-.159.074-.286.096-.116.01-.37.01h-3.239v1.069h2.085q.254 0 .37.021.128.01.286.095.275.16.275.837 0 .74-.402.878-.17.053-.54.053h-2.074v2q0 .254-.021.37-.01.117-.095.276-.148.285-.826.285-.74 0-.868-.402-.063-.17-.063-.54v-5.884q0-.54.201-.73.201-.201.762-.201zM-90.322-5.387q0-1.27.889-2.096.889-.825 2.032-.825t2.021.825q.879.815.879 2.085 0 .878-.455 1.566-.455.678-1.111 1.006-.646.317-1.345.317-.698 0-1.354-.338-.656-.35-1.111-1.016-.445-.678-.445-1.524zm2.212.762q.339.254.688.254.35 0 .698-.265.35-.265.35-.783 0-.519-.328-.773-.329-.254-.71-.254-.38 0-.709.265-.328.264-.328.783 0 .508.339.773zM-84.11-5.387q0-1.27.89-2.096.888-.825 2.031-.825 1.143 0 2.022.825.878.815.878 2.085 0 .878-.455 1.566-.455.678-1.111 1.006-.646.317-1.344.317-.699 0-1.355-.338-.656-.35-1.111-1.016-.445-.678-.445-1.524zm2.212.762q.339.254.688.254.35 0 .699-.265t.349-.783q0-.519-.328-.773t-.71-.254q-.38 0-.708.265-.328.264-.328.783 0 .508.338.773zM-74.003-10.5q.085-.158.286-.221.201-.064.53-.064.338 0 .539.064.2.063.275.222.085.159.095.286.021.116.021.36v6.318q0 .243-.02.37-.011.117-.096.265-.159.285-.9.285-.73 0-.815-.518-.444.508-1.238.508-.952 0-1.735-.826-.784-.836-.784-1.936 0-1.112.784-1.948.793-.836 1.735-.836.783 0 1.217.53v-2.223q0-.244.01-.36.022-.127.096-.275zm-1.714 5.748q.275.285.666.285.392 0 .646-.285.265-.286.265-.625 0-.35-.254-.645-.244-.297-.667-.297-.424 0-.678.297-.254.285-.254.635 0 .349.276.635zM-66.346-9.637l2.857 5.905q.18.36.18.54 0 .381-.614.688-.36.18-.571.18-.201 0-.339-.095-.127-.096-.19-.202l-.16-.317-.55-1.143h-2.931l-.55 1.143q-.106.212-.17.307-.053.095-.19.201-.127.095-.339.095-.201 0-.56-.18-.615-.296-.615-.677 0-.18.18-.54l2.858-5.916q.116-.243.349-.391.243-.149.508-.149.572 0 .847.55zm-.858 2.54l-.698 1.45h1.408zM-60.104-7.97q.73 0 .857.403.063.201.063.53 0 .327-.074.528-.063.19-.211.276-.223.127-.646.127l-.677-.043v2.837q0 .402-.106.603-.095.19-.307.254-.201.063-.53.063-.327 0-.528-.063-.19-.074-.275-.222-.085-.16-.106-.286-.01-.127-.01-.37v-2.805h-.382q-.275-.021-.391-.127-.202-.201-.202-.773 0-.868.625-.868h.35v-.56q0-.815.581-1.472.582-.666 1.683-.666.243 0 .36.02.127.011.286.096.285.138.285.815 0 .508-.18.73-.148.17-.465.19h-.297q-.391 0-.391.265v.582zM-55.309-7.937c.487 0 .773.134.858.402.042.134.063.31.063.529 0 .219-.025.395-.074.53a.473.473 0 01-.212.274c-.148.085-.363.127-.645.127l-.678-.042v2.836c0 .268-.035.47-.105.604a.483.483 0 01-.307.254c-.134.042-.31.063-.53.063-.218 0-.395-.021-.529-.063a.518.518 0 01-.275-.223.955.955 0 01-.106-.285 4.846 4.846 0 01-.01-.37v-2.805h-.381c-.184-.015-.314-.057-.392-.127-.134-.134-.201-.392-.201-.773 0-.579.208-.868.624-.868h.35v-.56c0-.544.194-1.034.582-1.472.388-.444.949-.667 1.682-.667.163 0 .283.008.36.022.085.007.18.038.286.095.19.092.286.363.286.815 0 .338-.06.582-.18.73-.099.113-.254.176-.466.19h-.296c-.261 0-.392.089-.392.265v.582zM-50.401-7.455q.063-.593.836-.593.412 0 .614.063.2.064.275.223.084.158.095.285.021.117.021.36v3.704q0 .244-.021.37-.01.117-.085.276-.148.275-.73.275-.572 0-.773-.137-.19-.149-.222-.424-.391.561-1.312.561-.91 0-1.694-.836-.783-.836-.783-1.937 0-1.111.783-1.936.794-.837 1.736-.837.36 0 .656.127.297.127.413.244.116.106.19.212zm-1.927 2.2q0 .35.276.636.275.275.666.275.392 0 .646-.286.265-.285.265-.624 0-.35-.254-.646-.244-.296-.667-.296-.413 0-.678.296-.254.297-.254.646zM-47.817-7.117q0-.243.011-.36.021-.127.095-.285.149-.276.826-.276.508 0 .72.18.18.149.19.455.01.106.01.307v3.705q0 .243-.02.37-.011.116-.096.275-.137.275-.815.275-.667 0-.815-.285-.074-.16-.095-.276-.01-.116-.01-.37zm1.736-1.958q-.074.148-.275.212-.201.063-.54.063-.328 0-.529-.063-.201-.064-.286-.222-.074-.16-.095-.275-.01-.127-.01-.37 0-.244.01-.36.021-.128.095-.276.148-.286.826-.286.667 0 .804.286.085.159.095.286.022.116.022.36 0 .243-.022.37-.01.117-.095.275zM-41.487-8.018q.201.063.328.222.138.148.138.487 0 .339-.201.74-.201.403-.582.403-.19 0-.37-.085-.17-.084-.456-.084-.286 0-.54.2-.243.202-.243.488v2.222q0 .244-.021.37-.01.117-.096.276-.158.275-.825.275-.508 0-.73-.18-.17-.148-.19-.455v-4.022q0-.243.01-.36.021-.127.095-.275.148-.286.825-.286.635 0 .794.244.117.17.117.35.053-.075.148-.18.106-.107.434-.287t.571-.18q.254 0 .424.032.169.021.37.085z" style="-inkscape-font-specification:'Fredoka One'"/></g><text style="line-height:1.25;-inkscape-font-specification:Aquino" x="85.368" y="84.27" font-weight="400" font-size="10.583" font-family="Aquino" letter-spacing="0" word-spacing="0" fill="#483e37" stroke-width=".265" transform="translate(-153.894 -80.229)"><tspan x="85.368" y="84.27" style="-inkscape-font-specification:KFhimaji" font-size="7.056" font-family="KFhimaji">食糧事情</tspan></text><g aria-label="a Food A f fair" style="line-height:1.25;-inkscape-font-specification:Aquino" font-weight="400" font-size="10.583" font-family="Fredoka One" letter-spacing="0" word-spacing="0" fill="#483e37" stroke-width=".265"><path d="M-116.392 33.197q.063-.593.836-.593.413 0 .614.064.2.063.275.222.085.159.095.286.021.116.021.36v3.704q0 .243-.02.37-.012.116-.086.275-.148.275-.73.275-.571 0-.772-.137-.19-.148-.223-.424-.391.561-1.312.561-.91 0-1.693-.836-.784-.836-.784-1.937 0-1.11.784-1.936.793-.836 1.735-.836.36 0 .656.127.297.127.413.243.117.106.19.212zm-1.926 2.201q0 .35.275.635.275.275.667.275.391 0 .645-.286.265-.285.265-.624 0-.35-.254-.646-.244-.296-.667-.296-.413 0-.677.296-.254.297-.254.646zM-108.192 30.49q.243 0 .36.022.127.01.275.095.158.085.222.286.063.2.063.54 0 .338-.063.54-.064.2-.222.285-.159.074-.286.095-.116.01-.37.01h-3.239v1.07h2.085q.254 0 .37.021.127.01.286.095.275.159.275.836 0 .741-.402.879-.17.053-.54.053h-2.074v2q0 .254-.021.37-.01.117-.095.276-.149.285-.826.285-.74 0-.868-.402-.063-.17-.063-.54v-5.884q0-.54.2-.73.202-.201.763-.201zM-108.097 35.431q0-1.27.889-2.095.889-.826 2.032-.826t2.021.826q.879.815.879 2.085 0 .878-.455 1.566-.455.678-1.112 1.006-.645.317-1.344.317-.698 0-1.354-.339-.656-.349-1.112-1.016-.444-.677-.444-1.524zm2.212.762q.339.254.688.254.349 0 .698-.264.35-.265.35-.783 0-.519-.329-.773-.328-.254-.709-.254-.38 0-.709.265-.328.264-.328.783 0 .508.339.772zM-101.885 35.431q0-1.27.89-2.095.888-.826 2.031-.826 1.143 0 2.022.826.878.815.878 2.085 0 .878-.455 1.566-.455.678-1.111 1.006-.646.317-1.344.317-.699 0-1.355-.339-.656-.349-1.111-1.016-.445-.677-.445-1.524zm2.212.762q.339.254.688.254.35 0 .698-.264.35-.265.35-.783 0-.519-.328-.773t-.71-.254q-.38 0-.709.265-.328.264-.328.783 0 .508.34.772zM-91.778 30.32q.085-.16.286-.223.2-.063.529-.063.339 0 .54.063.2.064.275.223.085.158.095.285.021.117.021.36v6.319q0 .243-.02.37-.012.116-.096.265-.159.285-.9.285-.73 0-.815-.518-.444.508-1.238.508-.952 0-1.736-.826-.783-.836-.783-1.937 0-1.11.783-1.947.794-.836 1.736-.836.783 0 1.217.53v-2.223q0-.244.01-.36.022-.127.096-.275zm-1.714 5.746q.275.286.666.286.392 0 .646-.286.264-.285.264-.624 0-.35-.254-.646-.243-.296-.666-.296-.424 0-.678.296-.254.286-.254.635 0 .35.276.635zM-115.459 39.935l2.858 5.905q.18.36.18.54 0 .38-.614.688-.36.18-.572.18-.2 0-.338-.096-.127-.095-.19-.2l-.16-.318-.55-1.143h-2.932l-.55 1.143q-.106.212-.17.307-.052.095-.19.2-.127.096-.338.096-.201 0-.561-.18-.614-.296-.614-.677 0-.18.18-.54l2.857-5.916q.117-.243.35-.392.243-.148.508-.148.571 0 .846.55zm-.857 2.54l-.699 1.45h1.408zM-109.217 41.603q.73 0 .858.402.063.201.063.53 0 .327-.074.528-.064.19-.212.275-.222.127-.645.127l-.678-.042v2.836q0 .403-.106.604-.095.19-.306.254-.202.063-.53.063t-.529-.063q-.19-.074-.275-.223-.085-.158-.106-.285-.01-.127-.01-.37v-2.805h-.381q-.276-.021-.392-.127-.201-.201-.201-.773 0-.868.624-.868h.35v-.56q0-.816.582-1.472.582-.666 1.682-.666.244 0 .36.02.127.011.286.096.286.138.286.815 0 .508-.18.73-.148.17-.466.19h-.296q-.392 0-.392.265v.582zM-104.421 41.635c.487 0 .772.134.857.402.042.134.064.31.064.529 0 .219-.025.395-.075.53a.473.473 0 01-.211.274c-.148.085-.364.127-.646.127l-.677-.042v2.836c0 .268-.035.47-.106.603a.483.483 0 01-.307.254c-.134.043-.31.064-.529.064-.219 0-.395-.021-.53-.064a.518.518 0 01-.274-.222.955.955 0 01-.106-.286 4.846 4.846 0 01-.01-.37v-2.805h-.382c-.183-.014-.314-.056-.391-.127-.134-.134-.201-.391-.201-.772 0-.579.208-.868.624-.868h.35v-.56c0-.544.193-1.034.581-1.472.388-.444.95-.667 1.683-.667.162 0 .282.007.36.021.085.008.18.04.286.096.19.091.285.363.285.815 0 .338-.06.582-.18.73-.098.113-.254.176-.465.19h-.297c-.26 0-.391.089-.391.265v.582zM-99.514 42.116q.064-.592.836-.592.413 0 .614.063.201.064.275.222.085.16.095.286.022.117.022.36v3.704q0 .244-.022.37-.01.117-.084.276-.148.275-.73.275-.572 0-.773-.138-.19-.148-.222-.423-.392.561-1.313.561-.91 0-1.693-.836t-.783-1.937q0-1.111.783-1.937.794-.836 1.736-.836.36 0 .656.127.296.127.413.244.116.106.19.211zm-1.926 2.202q0 .349.275.635.275.275.667.275t.646-.286q.264-.286.264-.624 0-.35-.254-.646-.243-.296-.667-.296-.412 0-.677.296-.254.296-.254.646zM-96.862 42.388q0-.243.01-.36.022-.127.096-.285.148-.275.825-.275.508 0 .72.18.18.148.19.455.011.105.011.306v3.705q0 .243-.021.37-.01.116-.096.275-.137.275-.814.275-.667 0-.815-.285-.074-.16-.096-.276-.01-.116-.01-.37zm1.735-1.958q-.074.149-.275.212-.2.064-.54.064-.328 0-.529-.064-.2-.063-.285-.222-.074-.159-.096-.275-.01-.127-.01-.37 0-.244.01-.36.022-.128.096-.276.148-.286.825-.286.667 0 .804.286.085.159.096.286.021.116.021.36 0 .243-.021.37-.01.117-.096.275zM-90.399 41.554q.201.063.328.222.138.148.138.487 0 .339-.201.74-.201.403-.582.403-.19 0-.37-.085-.17-.084-.456-.084-.286 0-.54.2-.243.202-.243.488v2.222q0 .243-.021.37-.01.117-.096.276-.158.275-.825.275-.508 0-.73-.18-.17-.148-.19-.455V42.41q0-.243.01-.36.021-.127.095-.275.148-.286.825-.286.635 0 .794.244.117.17.117.349.053-.074.148-.18.106-.106.434-.286t.571-.18q.254 0 .424.032.169.021.37.085z" style="-inkscape-font-specification:'Fredoka One'"/></g><text style="line-height:1.25;-inkscape-font-specification:Aquino" x="39.203" y="133.97" font-weight="400" font-size="10.583" font-family="Aquino" letter-spacing="0" word-spacing="0" fill="#483e37" stroke-width=".265" transform="translate(-153.894 -80.229)"><tspan x="39.203" y="133.97" style="-inkscape-font-specification:KFhimaji" font-size="6.35" font-family="KFhimaji">食糧事情</tspan></text></svg>