<svg xmlns="http://www.w3.org/2000/svg" width="114.394" height="91.594" viewBox="0 0 30.267 24.234"><g aria-label="a Food Af fair" style="line-height:1.25;-inkscape-font-specification:Aquino" font-weight="800" font-size="14.111" font-family="Config Rounded" letter-spacing="0" word-spacing="0" fill="#241f1c" stroke-width=".265"><path d="M105.324-74.916c-.902 0-1.646.2-2.232.6-.586.399-.875.902-.875 1.515 0 .344.172.517.523.517h1.337c.234 0 .407-.124.51-.366.103-.282.33-.42.69-.42.226 0 .406.062.543.186.138.124.207.29.207.496v.648h-1.75c-.696 0-1.254.2-1.674.593-.42.392-.634.91-.634 1.55s.206 1.15.62 1.53c.413.378.944.564 1.598.564.896-.006 1.489-.316 1.778-.937h.138v.242c0 .35.172.523.524.523h1.281c.352 0 .524-.172.524-.523v-4.334c0-.71-.283-1.282-.848-1.716-.565-.434-1.316-.648-2.26-.648zm-.158 5.725c-.234 0-.42-.048-.565-.151a.484.484 0 01-.214-.42c0-.159.062-.29.18-.393.116-.104.275-.152.475-.152h.985v.524a.51.51 0 01-.241.434c-.159.11-.365.165-.62.165zM116.033-77.189h-4.954c-.393 0-.592.2-.592.593v8.268c0 .393.2.593.592.593h1.357c.393 0 .593-.2.593-.593v-2.721h2.315c.393 0 .593-.2.593-.593V-72.8c0-.392-.2-.592-.593-.592h-2.315v-1.468h3.004c.393 0 .593-.193.593-.578v-1.158c0-.393-.2-.593-.593-.593zM119.52-67.748c.97 0 1.75-.268 2.335-.813.586-.544.875-1.26.875-2.156v-1.461c0-.896-.29-1.612-.875-2.157-.586-.544-1.364-.813-2.336-.813-.971 0-1.75.269-2.336.813-.585.545-.882 1.261-.882 2.157v1.46c0 .896.297 1.613.882 2.157.586.545 1.365.813 2.336.813zm-.008-2.204c-.248 0-.448-.07-.6-.207a.717.717 0 01-.227-.558v-1.461c0-.241.076-.427.228-.565.151-.138.351-.207.6-.207.247 0 .44.07.585.207.145.138.213.324.213.558v1.46c0 .242-.075.428-.22.566-.145.138-.338.207-.586.207zM126.392-67.763c.972 0 1.75-.27 2.336-.813.586-.545.875-1.261.875-2.157v-1.46c0-.897-.29-1.613-.875-2.157-.586-.545-1.364-.813-2.336-.813-.971 0-1.75.268-2.336.813-.585.544-.882 1.26-.882 2.156v1.46c0 .897.297 1.613.882 2.158.586.544 1.365.813 2.336.813zm-.007-2.205c-.248 0-.448-.07-.6-.207a.717.717 0 01-.227-.558v-1.46c0-.242.076-.428.228-.566.151-.138.351-.207.6-.207.247 0 .44.07.585.207.145.138.213.324.213.558v1.461c0 .241-.075.427-.22.565-.145.138-.338.207-.586.207zM135.887-77.57h-1.358c-.344 0-.517.173-.517.525v3.217h-.13a1.788 1.788 0 00-.683-.785c-.31-.2-.675-.303-1.088-.303-.627 0-1.137.213-1.53.634-.393.42-.592.971-.592 1.646v2.853c0 .675.2 1.226.592 1.647.393.42.903.633 1.53.633a1.95 1.95 0 001.082-.303c.31-.2.537-.461.682-.785h.13v.393c-.006.35.166.523.517.523h1.358c.351 0 .523-.172.523-.523v-8.834c0-.351-.172-.523-.523-.523zm-2.701 7.821c-.242 0-.434-.069-.58-.206a.737.737 0 01-.22-.559v-1.378c0-.24.076-.427.22-.565.146-.137.338-.206.58-.206.24 0 .44.069.592.213a.713.713 0 01.228.538v1.405c0 .22-.076.4-.228.538-.151.138-.351.206-.592.206zM147.166-68.336l-2.287-8.296c-.076-.338-.29-.51-.648-.51h-2.543c-.337 0-.55.172-.64.51l-2.274 8.296c-.117.434.048.647.496.647h1.564c.31 0 .496-.158.551-.468l.228-1.027h2.611l.241 1.027c.055.31.241.468.551.468h1.66c.435 0 .6-.213.497-.647zm-5.03-3.122l.703-3.148h.159l.716 3.148zM150.548-75.664h.282c.352 0 .524-.173.524-.524v-.93c0-.352-.172-.524-.524-.524h-.958c-.682 0-1.233.193-1.646.579-.414.386-.235 1.031-.62 1.543v.703h-.607c-.344 0-.517.172-.517.524v1.102c-.007.345.166.517.517.517h.607v4.389c0 .351.172.524.523.524h1.358c.35 0 .523-.173.523-.524v-4.39h.827c.351.008.524-.164.524-.516v-1.102c0-.352-.173-.524-.524-.524h-.827v-.296c-.007-.365.172-.551.538-.551zM155.69-75.664h.283c.351 0 .524-.173.524-.524v-.93c0-.352-.173-.524-.524-.524h-.958c-.682 0-1.233.193-1.647.579-.413.386-.234 1.031-.62 1.543v.703h-.606c-.344 0-.517.172-.517.524v1.102c-.007.345.166.517.517.517h.606v4.389c0 .351.173.524.524.524h1.357c.352 0 .524-.173.524-.524v-4.39h.827c.351.008.524-.164.524-.516v-1.102c0-.352-.173-.524-.524-.524h-.827v-.296c-.007-.365.172-.551.537-.551zM159.916-74.99c-.903 0-1.647.2-2.233.6-.586.4-.875.903-.875 1.516 0 .345.172.517.524.517h1.336c.235 0 .407-.124.51-.365.104-.283.331-.42.69-.42.227 0 .406.061.544.185.137.124.337.336.206.496v.648h-1.75c-.696 0-1.254.2-1.674.593-.42.392-.634.91-.634 1.55s.207 1.15.62 1.53c.414.379.944.565 1.599.565.895-.007 1.488-.317 1.777-.937h.138v.24c0 .352.172.524.524.524h1.281c.352 0 .524-.172.524-.523v-4.334c0-.71-.282-1.282-.847-1.716-.565-.434-1.317-.648-2.26-.648zm-.159 5.727c-.234 0-.42-.049-.565-.152a.484.484 0 01-.214-.42c0-.159.062-.29.18-.393.117-.103.275-.152.475-.152h.985v.524a.51.51 0 01-.24.434c-.16.11-.366.165-.62.165zM164.68-75.478c.414 0 .745-.124 1-.373.254-.248.378-.578.378-.992 0-.392-.124-.71-.379-.95-.254-.242-.585-.366-.999-.366-.434 0-.778.124-1.033.365-.255.242-.386.565-.386.972 0 .407.124.737.379.985s.6.372 1.034.372zm-.702 7.73h1.357c.351 0 .524-.172.524-.523v-6.009c0-.35-.173-.523-.524-.523h-1.357c-.345 0-.517.172-.517.523v6.009c-.007.351.165.523.517.523zM170.188-74.955c-.668.055-1.116.476-1.343 1.268h-.124v-.606c0-.352-.172-.524-.524-.524h-1.357c-.345 0-.517.172-.517.524v6.008c-.007.351.165.524.517.524h1.357c.352 0 .524-.173.524-.524v-2.832c0-.93.496-1.399 1.495-1.399.351 0 .524-.172.524-.523v-1.399c0-.18-.049-.317-.145-.407-.097-.09-.234-.124-.407-.103z" style="-inkscape-font-specification:'Config Rounded Ultra-Bold'"/></g><text style="line-height:1.25;-inkscape-font-specification:Aquino" x="137.348" y="52.918" font-weight="400" font-size="10.583" font-family="Aquino" letter-spacing="0" word-spacing="0" fill="#241f1c" stroke-width=".265" transform="translate(-33.694 -110.263)"><tspan x="137.348" y="52.918" style="-inkscape-font-specification:'Fredoka One'" font-family="Fredoka One">a Food Affair</tspan></text><text style="line-height:1.25;-inkscape-font-specification:Aquino" x="75.084" y="180.867" font-weight="400" font-size="10.583" font-family="Aquino" letter-spacing="0" word-spacing="0" fill="#483e37" stroke-width=".265" transform="translate(-33.694 -110.263)"><tspan x="75.084" y="180.867" style="-inkscape-font-specification:KFhimaji" font-size="7.056" font-family="KFhimaji">食糧事情</tspan></text><path d="M1.918 64.022C1.44 63.901.861 63.45.64 63.025c-.141-.271-.197-.553-.197-.993 0-.8.324-1.388.971-1.769.42-.246.525-.264 1.746-.295l1.299-.033v-.503c0-.432-.036-.532-.25-.7-.48-.379-.888-.262-1.431.41-.096.118-.31.15-.997.15-.977 0-1.102-.061-1.102-.542 0-.73.64-1.416 1.654-1.775.69-.244 2.102-.216 2.843.057.778.287 1.398.928 1.54 1.592.06.278.105 1.435.105 2.683 0 2.742.057 2.615-1.167 2.615-.954 0-1.1-.065-1.1-.491 0-.342-.142-.335-.443.022-.133.158-.363.35-.511.427-.335.172-1.254.25-1.68.142zm2.355-1.757c.13-.117.185-.29.185-.578v-.41h-.64c-.752 0-1.062.16-1.06.548.002.298.071.419.33.572.256.153.957.075 1.185-.132zM9.048 63.68c-.131-.131-.149-.67-.149-4.49 0-4.213.005-4.345.19-4.528.18-.18.314-.189 2.874-.189 2.317 0 2.707.02 2.835.148.114.114.149.356.149 1.037 0 .78-.022.899-.183.985-.106.056-.865.098-1.795.098h-1.613v1.512h1.205c1.653.003 1.67.013 1.704 1.064.041 1.24.088 1.203-1.542 1.203h-1.367v1.54c0 1.072-.035 1.575-.113 1.654-.182.182-2.008.153-2.195-.035zM16.68 63.658c-.89-.317-1.545-.967-1.788-1.778-.186-.616-.181-2.774.008-3.407.187-.631.766-1.276 1.444-1.609.494-.242.63-.265 1.58-.263.94.002 1.09.027 1.576.264a2.783 2.783 0 011.343 1.383c.176.38.2.604.2 1.942 0 1.463-.009 1.529-.265 2.049a2.76 2.76 0 01-1.385 1.337c-.616.278-2.043.321-2.713.082zm1.881-2.2c.136-.166.166-.393.166-1.268 0-1.316-.105-1.512-.804-1.512-.366 0-.48.045-.67.265-.208.243-.227.346-.227 1.231 0 1.03.095 1.311.506 1.486.307.13.843.025 1.03-.202zM23.802 63.73c-.765-.192-1.535-.784-1.892-1.455-.182-.341-.209-.562-.238-1.965-.03-1.511-.022-1.603.199-2.085.489-1.068 1.332-1.588 2.677-1.653 1.052-.05 1.707.116 2.333.594.87.664 1.164 1.586 1.085 3.392-.039.88-.09 1.16-.285 1.58-.501 1.076-1.36 1.6-2.707 1.652-.448.017-.975-.01-1.172-.06zm1.61-2.317c.192-.219.213-.338.213-1.265 0-1.291-.104-1.47-.85-1.47-.753 0-.851.175-.851 1.506 0 .979.016 1.074.212 1.253.117.106.277.218.355.249.262.102.707-.03.921-.273zM29.838 64c-.483-.135-1.113-.768-1.262-1.27-.076-.254-.117-1.076-.117-2.369 0-1.973.001-1.982.26-2.493.284-.56.676-.878 1.286-1.042.74-.199 1.689.141 2.058.738.105.17.23.31.278.31.05 0 .087-.746.087-1.74 0-1.458.024-1.766.149-1.89.112-.113.35-.149.992-.149 1.337 0 1.222-.464 1.222 4.893 0 3.933-.02 4.541-.148 4.724-.134.192-.224.21-1.032.21-1.01 0-1.183-.09-1.183-.62 0-.408-.12-.412-.365-.014-.383.619-1.396.942-2.225.711zm2.205-2.2c.147-.076.294-.207.326-.291.11-.284.06-2.067-.062-2.225-.338-.44-.915-.482-1.304-.094-.266.267-.276.308-.276 1.177 0 .495.048 1.005.106 1.132.189.415.729.55 1.21.3zM37.295 63.767c-.106-.106-.136-.234-.094-.402.033-.135.522-1.925 1.085-3.978s1.07-3.912 1.129-4.13c.18-.681.204-.69 1.943-.69 1.279 0 1.571.026 1.694.149a.76.76 0 01.148.179c0 .016.532 1.956 1.182 4.31.65 2.354 1.18 4.335 1.18 4.401 0 .066-.081.165-.182.219-.223.119-2.08.128-2.265.01-.074-.046-.207-.375-.296-.73l-.163-.647h-2.691l-.163.646c-.09.356-.222.685-.295.731-.074.047-.566.085-1.095.086-.768 0-.994-.03-1.117-.154zm4.809-3.79c-.33-1.637-.677-2.905-.795-2.905-.097 0-.22.378-.432 1.336-.163.736-.325 1.448-.359 1.583l-.061.246h1.7zM46.133 63.645c-.06-.111-.098-1.07-.098-2.457v-2.274h-.469c-.59 0-.665-.12-.665-1.075 0-.626.025-.727.21-.857.116-.08.367-.147.558-.147.338 0 .349-.01.395-.401.073-.621.377-1.542.586-1.773.347-.383.85-.565 1.741-.628.703-.05.89-.033 1.089.098.222.145.24.212.24.852 0 .788-.047.858-.641.933-.523.067-.681.206-.681.6 0 .318.002.32.451.32.256 0 .543.063.662.146.185.13.21.23.21.857 0 .984-.064 1.075-.755 1.075h-.56l-.027 2.366c-.024 1.979-.052 2.38-.17 2.455-.078.05-.555.09-1.06.091-.812.001-.93-.02-1.016-.181zM51.315 63.672c-.1-.12-.136-.679-.158-2.457l-.028-2.3h-.402c-.22 0-.453-.052-.515-.114-.071-.071-.113-.424-.113-.942 0-.93.064-1.024.702-1.024.313 0 .337-.02.337-.288 0-.158.058-.403.129-.543.071-.14.18-.474.243-.742.128-.541.353-.801.89-1.026.463-.193 1.817-.289 2.163-.153.253.099.26.122.259.836-.001.405-.033.782-.071.84-.038.057-.28.127-.536.155-.52.058-.715.236-.715.656 0 .256.017.265.479.265.792 0 .844.063.844 1.024 0 .518-.042.87-.113.942-.063.062-.36.113-.662.113H53.5v2.344c0 1.696-.031 2.374-.113 2.456-.073.073-.443.114-1.028.114-.735 0-.94-.03-1.044-.156zM56.3 63.878c-.855-.305-1.351-1.149-1.261-2.144.067-.742.406-1.25 1.058-1.586.42-.216.6-.245 1.724-.275l1.254-.032v-.496c0-.575-.165-.786-.684-.87-.406-.066-.686.075-.876.442l-.145.28h-.993c-.937 0-.997-.011-1.07-.208-.108-.291.05-.912.325-1.272.129-.169.513-.442.866-.616.557-.274.746-.317 1.528-.346 1.545-.058 2.678.426 3.116 1.33.19.393.201.558.201 2.966 0 1.857-.03 2.58-.113 2.663-.154.154-1.793.154-1.947 0-.062-.062-.113-.232-.113-.378 0-.344-.142-.334-.451.033-.5.595-1.556.817-2.42.509zm2.544-1.7c.17-.17.231-.334.231-.614v-.382l-.59.001c-.792.002-1.055.142-1.092.582-.036.434.228.645.81.645.308 0 .466-.057.64-.232zM62.024 63.714c-.138-.137-.162-6.468-.026-6.683.11-.172 1.55-.256 1.92-.112l.26.1v3.291c0 2.434-.03 3.32-.113 3.404-.155.155-1.887.155-2.041 0zM62.265 56.443c-.788-.489-.685-1.895.164-2.25.975-.407 1.938.146 1.938 1.114 0 .855-.461 1.303-1.337 1.299-.307-.002-.607-.066-.765-.163zM64.843 63.645c-.062-.115-.098-1.347-.098-3.35 0-3.736-.096-3.46 1.202-3.46.94 0 1.16.144 1.16.756 0 .208.035.378.076.378.042 0 .169-.192.283-.426.233-.48.678-.801 1.11-.802.456 0 .516.133.516 1.146 0 1.047-.087 1.216-.624 1.216-.412 0-.88.195-1.124.47-.172.192-.193.383-.236 2.142-.04 1.577-.074 1.947-.19 2.02-.077.05-.554.09-1.06.091-.81.001-.929-.02-1.015-.18z" fill="#483e37"/><text style="line-height:1.25;-inkscape-font-specification:Aquino" x="159.709" y="108.017" font-weight="400" font-size="10.583" font-family="Aquino" letter-spacing="0" word-spacing="0" fill="#483e37" stroke-width=".265" transform="translate(-33.694 -110.263)"><tspan x="159.709" y="108.017" style="-inkscape-font-specification:KFhimaji" font-size="7.056" font-family="KFhimaji">食糧事情</tspan></text><path d="M121.676-20.388c-.479-.121-1.057-.572-1.279-.998-.141-.27-.197-.552-.197-.992 0-.8.324-1.389.97-1.769.42-.246.526-.264 1.746-.295l1.3-.033v-.504c0-.431-.036-.531-.25-.7-.48-.378-.889-.261-1.431.41-.096.119-.31.15-.997.15-.978 0-1.102-.06-1.102-.542 0-.73.64-1.415 1.654-1.774.69-.244 2.102-.216 2.843.057.778.286 1.398.928 1.54 1.592.06.278.105 1.434.105 2.683 0 2.741.056 2.615-1.168 2.615-.954 0-1.1-.065-1.1-.491 0-.343-.142-.336-.442.022-.133.158-.363.35-.512.426-.334.173-1.253.251-1.68.143zm2.355-1.757c.13-.117.185-.29.185-.578v-.41h-.64c-.752 0-1.062.16-1.06.548.002.298.071.418.33.572.255.153.957.074 1.185-.132zM128.48-20.44c-.131-.13-.149-.668-.149-4.488 0-4.214.005-4.345.189-4.529.18-.18.315-.189 2.875-.189 2.316 0 2.707.02 2.835.149.114.114.149.355.149 1.036 0 .78-.022.9-.183.985-.106.057-.865.098-1.796.098h-1.612v1.512h1.205c1.653.003 1.67.013 1.704 1.064.041 1.24.088 1.203-1.542 1.203h-1.367v1.54c0 1.073-.035 1.575-.114 1.654-.181.182-2.007.153-2.194-.035zM136.11-20.46c-.889-.318-1.543-.968-1.787-1.779-.185-.616-.18-2.774.008-3.407.188-.63.767-1.275 1.445-1.609.494-.242.63-.265 1.58-.263.94.002 1.09.027 1.576.264a2.783 2.783 0 011.343 1.383c.176.38.199.604.199 1.942 0 1.463-.008 1.53-.264 2.049a2.76 2.76 0 01-1.385 1.338c-.616.277-2.043.32-2.714.081zm1.883-2.2c.136-.167.165-.394.165-1.269 0-1.316-.104-1.512-.803-1.512-.366 0-.48.045-.67.265-.208.243-.227.346-.227 1.231 0 1.03.095 1.311.506 1.486.307.13.843.025 1.029-.202zM143.234-20.388c-.765-.193-1.535-.785-1.892-1.456-.182-.341-.209-.561-.238-1.965-.03-1.511-.022-1.602.199-2.085.489-1.067 1.331-1.588 2.677-1.653 1.052-.05 1.707.116 2.333.594.87.664 1.164 1.586 1.085 3.392-.04.88-.09 1.16-.285 1.58-.501 1.076-1.36 1.6-2.707 1.652-.448.017-.975-.01-1.172-.06zm1.61-2.318c.192-.219.212-.338.212-1.265 0-1.29-.103-1.47-.85-1.47-.752 0-.85.175-.85 1.506 0 .979.016 1.075.212 1.253.117.107.277.219.355.249.262.102.707-.03.92-.273zM149.27-20.12c-.483-.134-1.113-.767-1.263-1.269-.075-.254-.116-1.076-.116-2.369 0-1.972.001-1.982.26-2.493.284-.56.676-.877 1.286-1.042.74-.199 1.689.141 2.057.738.106.171.232.31.28.31.049 0 .086-.746.086-1.74 0-1.458.024-1.766.149-1.89.112-.113.35-.149.992-.149 1.337 0 1.221-.463 1.221 4.893 0 3.933-.019 4.542-.147 4.725-.134.191-.224.21-1.032.21-1.01 0-1.183-.091-1.183-.621 0-.408-.12-.412-.366-.014-.382.619-1.395.942-2.224.711zm2.205-2.2c.147-.075.294-.206.326-.29.109-.284.059-2.067-.062-2.225-.339-.44-.915-.482-1.304-.093-.266.266-.276.307-.276 1.176 0 .496.048 1.005.105 1.132.19.416.73.55 1.211.3zM120.464-9.81c-.106-.106-.136-.235-.094-.402.034-.136.522-1.926 1.085-3.979s1.071-3.911 1.13-4.13c.18-.68.203-.69 1.942-.69 1.28 0 1.572.026 1.695.15a.76.76 0 01.148.178c0 .017.532 1.956 1.181 4.31.65 2.355 1.181 4.335 1.181 4.402 0 .066-.082.164-.182.218-.223.12-2.08.128-2.266.01-.073-.046-.206-.375-.296-.73l-.162-.647h-2.691l-.163.647c-.09.355-.223.684-.296.73-.073.047-.566.086-1.095.086-.768.001-.993-.03-1.117-.154zm4.81-3.79c-.33-1.638-.677-2.906-.796-2.906-.097 0-.219.378-.432 1.337-.163.735-.324 1.447-.358 1.583l-.062.246h1.7zM129.926-9.81c-.06-.112-.098-1.07-.098-2.457v-2.274h-.469c-.59 0-.664-.121-.664-1.076 0-.626.024-.726.21-.856.115-.081.366-.147.557-.147.338 0 .349-.01.395-.402.073-.62.378-1.542.586-1.773.347-.383.85-.564 1.741-.628.703-.05.89-.033 1.089.098.222.145.24.212.24.853 0 .788-.047.857-.64.933-.524.066-.682.206-.682.6 0 .317.002.319.451.319.256 0 .543.063.662.147.185.13.21.23.21.856 0 .985-.064 1.075-.755 1.075h-.559l-.028 2.366c-.024 1.98-.052 2.381-.17 2.456-.078.049-.555.09-1.06.09-.812.002-.93-.019-1.016-.18zM135.344-9.81c-.1-.121-.136-.679-.158-2.457l-.028-2.301h-.402c-.22 0-.452-.051-.515-.114-.07-.07-.113-.423-.113-.941 0-.93.064-1.024.702-1.024.313 0 .337-.02.337-.288 0-.159.059-.403.13-.544.07-.14.18-.474.243-.741.127-.542.353-.802.89-1.026.463-.194 1.816-.29 2.163-.153.252.099.26.122.258.836 0 .404-.032.782-.07.84-.039.057-.28.127-.537.155-.52.057-.714.236-.714.656 0 .256.017.265.478.265.793 0 .845.063.845 1.024 0 .518-.043.87-.114.941-.062.063-.36.114-.661.114h-.548v2.343c0 1.697-.032 2.375-.114 2.457-.072.073-.442.114-1.028.114-.734 0-.94-.031-1.044-.157zM140.622-9.81c-.855-.305-1.351-1.15-1.26-2.145.066-.742.406-1.25 1.057-1.586.42-.216.6-.245 1.724-.274l1.255-.033v-.496c0-.575-.166-.786-.684-.87-.407-.066-.687.076-.877.442l-.145.281h-.993c-.937 0-.997-.012-1.07-.208-.107-.292.051-.913.326-1.273.128-.168.513-.442.866-.616.556-.274.745-.317 1.527-.346 1.545-.057 2.679.427 3.116 1.331.19.393.202.557.202 2.966 0 1.857-.031 2.58-.114 2.663-.154.154-1.792.154-1.946 0-.063-.062-.114-.232-.114-.378 0-.345-.142-.335-.45.032-.501.595-1.557.817-2.42.51zm2.544-1.7c.17-.17.232-.334.232-.614v-.382h-.59c-.793.003-1.056.143-1.093.583-.036.434.229.645.81.645.308 0 .466-.058.64-.232zM146.78-9.863c-.137-.138-.16-6.468-.025-6.683.11-.172 1.55-.257 1.92-.113l.26.101v3.29c0 2.434-.03 3.321-.113 3.405-.155.154-1.887.154-2.041 0zM147.022-17.135c-.788-.488-.685-1.894.164-2.25.975-.407 1.938.147 1.938 1.115 0 .855-.461 1.303-1.337 1.298-.307-.002-.607-.065-.765-.163zM150.13-9.932c-.063-.116-.099-1.348-.099-3.35 0-3.737-.096-3.46 1.203-3.46.94 0 1.16.143 1.16.756 0 .208.034.378.075.378.042 0 .17-.192.283-.426.233-.48.678-.802 1.111-.802.455 0 .515.132.515 1.145 0 1.048-.087 1.217-.624 1.217-.412 0-.88.195-1.124.469-.172.193-.193.383-.236 2.142-.039 1.578-.073 1.948-.19 2.021-.077.05-.554.09-1.059.09-.812.002-.93-.019-1.016-.18z" fill="#483e37"/><text style="line-height:1.25;-inkscape-font-specification:Aquino" x="163.927" y="174.822" font-weight="400" font-size="10.583" font-family="Aquino" letter-spacing="0" word-spacing="0" fill="#483e37" stroke-width=".265" transform="translate(-33.694 -110.263)"><tspan x="163.927" y="174.822" style="-inkscape-font-specification:KFhimaji" font-size="7.056" font-family="KFhimaji">食糧事情</tspan></text><path d="M132.814 36.262c-.479-.122-1.057-.573-1.28-.998-.14-.27-.196-.552-.196-.992 0-.8.324-1.389.97-1.77.42-.246.526-.264 1.746-.294l1.3-.033v-.504c0-.432-.036-.532-.25-.7-.48-.378-.889-.262-1.431.41-.096.118-.31.15-.997.15-.978 0-1.102-.06-1.102-.542 0-.73.639-1.415 1.653-1.775.69-.244 2.103-.215 2.844.058.777.286 1.398.927 1.54 1.592.06.277.105 1.434.105 2.683 0 2.741.056 2.615-1.168 2.615-.954 0-1.1-.066-1.1-.492 0-.342-.142-.335-.443.023-.132.157-.362.35-.51.426-.335.173-1.254.25-1.681.143zm2.354-1.757c.13-.118.186-.29.186-.579v-.41h-.64c-.752 0-1.062.16-1.06.549.002.298.071.418.33.572.255.152.956.074 1.184-.132zM131.324 46.676c-.13-.13-.149-.669-.149-4.488 0-4.214.005-4.346.19-4.53.18-.18.314-.188 2.875-.188 2.316 0 2.706.02 2.834.148.114.114.149.356.149 1.037 0 .78-.022.899-.183.985-.105.056-.864.098-1.795.098h-1.613v1.512h1.205c1.654.003 1.67.013 1.705 1.064.04 1.24.087 1.203-1.543 1.203h-1.367v1.54c0 1.072-.034 1.575-.113 1.654-.182.182-2.007.153-2.195-.035zM138.955 46.655c-.89-.317-1.543-.967-1.787-1.778-.186-.616-.18-2.774.008-3.407.187-.631.766-1.276 1.445-1.609.493-.242.629-.265 1.579-.263.94.002 1.09.027 1.576.264a2.783 2.783 0 011.343 1.383c.176.38.2.604.2 1.942 0 1.463-.009 1.529-.264 2.049a2.76 2.76 0 01-1.386 1.337c-.616.278-2.043.321-2.713.082zm1.882-2.2c.136-.166.166-.393.166-1.268 0-1.316-.105-1.512-.803-1.512-.367 0-.48.045-.67.265-.21.243-.228.346-.228 1.231 0 1.03.095 1.311.506 1.486.307.13.844.025 1.03-.202zM146.079 46.728c-.766-.193-1.536-.785-1.893-1.456-.182-.341-.209-.562-.237-1.965-.031-1.511-.023-1.603.198-2.085.489-1.068 1.332-1.588 2.677-1.653 1.052-.05 1.707.116 2.333.594.87.664 1.165 1.586 1.085 3.392-.039.88-.09 1.16-.285 1.58-.5 1.076-1.36 1.6-2.706 1.652-.448.017-.976-.01-1.172-.06zm1.61-2.318c.192-.219.212-.338.212-1.265 0-1.291-.104-1.47-.85-1.47-.752 0-.851.175-.851 1.506 0 .979.016 1.074.212 1.253.117.106.277.218.355.249.262.102.707-.03.921-.273zM152.114 46.996c-.483-.134-1.112-.767-1.262-1.269-.076-.254-.116-1.076-.116-2.369 0-1.973 0-1.982.26-2.493.283-.56.676-.878 1.285-1.042.74-.199 1.689.141 2.058.738.105.17.23.31.279.31.05 0 .086-.746.086-1.74 0-1.458.025-1.766.149-1.89.113-.113.351-.149.992-.149 1.337 0 1.222-.464 1.222 4.893 0 3.933-.02 4.541-.147 4.724-.135.192-.225.21-1.033.21-1.01 0-1.183-.09-1.183-.62 0-.408-.119-.412-.365-.014-.382.619-1.395.942-2.225.711zm2.206-2.2c.147-.075.293-.206.326-.29.108-.284.058-2.067-.063-2.225-.338-.44-.915-.482-1.303-.094-.267.267-.277.308-.277 1.177 0 .495.048 1.005.106 1.132.19.415.73.55 1.21.3zM130.419 57.655c-.106-.105-.136-.234-.094-.401.033-.136.522-1.926 1.085-3.98.563-2.052 1.071-3.91 1.129-4.129.18-.681.204-.69 1.943-.69 1.28 0 1.571.026 1.694.15a.76.76 0 01.149.178c0 .016.531 1.956 1.18 4.31.65 2.355 1.182 4.335 1.182 4.401 0 .067-.082.165-.183.219-.223.12-2.08.128-2.265.01-.073-.046-.207-.375-.296-.73l-.163-.647h-2.691l-.162.647c-.09.355-.223.684-.296.73-.073.047-.566.085-1.095.086-.768.001-.993-.03-1.117-.154zm4.81-3.79c-.33-1.637-.678-2.905-.796-2.905-.097 0-.22.378-.432 1.337-.163.735-.325 1.447-.359 1.582l-.061.246h1.7zM139.257 57.533c-.06-.111-.098-1.07-.098-2.457v-2.274h-.469c-.59 0-.664-.12-.664-1.075 0-.626.024-.727.21-.856.115-.081.366-.147.557-.147.338 0 .349-.011.395-.402.073-.62.378-1.542.586-1.773.347-.383.85-.565 1.741-.628.703-.05.89-.033 1.089.098.222.145.24.212.24.852 0 .789-.047.858-.64.934-.524.066-.682.206-.682.6 0 .317.002.318.451.318.256 0 .543.064.662.148.185.13.21.23.21.856 0 .985-.064 1.075-.755 1.075h-.559l-.028 2.366c-.024 1.98-.052 2.38-.17 2.456-.078.049-.555.09-1.06.09-.812.002-.93-.02-1.016-.18zM144.44 57.56c-.101-.12-.137-.678-.159-2.457l-.028-2.3h-.402c-.22 0-.453-.052-.515-.114-.07-.07-.113-.423-.113-.942 0-.93.064-1.023.702-1.023.313 0 .337-.021.337-.289 0-.158.058-.403.13-.543.07-.14.18-.474.243-.741.127-.542.352-.802.89-1.027.462-.193 1.816-.289 2.163-.153.252.1.26.122.258.837 0 .404-.033.781-.07.839-.04.057-.28.127-.537.156-.52.057-.715.235-.715.655 0 .256.017.266.48.266.792 0 .843.062.843 1.023 0 .519-.042.871-.113.942-.062.062-.36.113-.661.113h-.549v2.344c0 1.697-.03 2.375-.113 2.457-.073.072-.443.113-1.028.113-.735 0-.94-.03-1.044-.156zM149.424 57.766c-.855-.304-1.351-1.149-1.261-2.144.067-.742.406-1.25 1.058-1.586.42-.216.6-.245 1.724-.274l1.255-.033v-.496c0-.575-.166-.786-.684-.87-.407-.066-.687.075-.877.442l-.145.28h-.993c-.937 0-.997-.01-1.07-.207-.108-.292.051-.913.325-1.273.13-.169.513-.442.867-.616.556-.274.745-.317 1.527-.346 1.545-.058 2.678.426 3.116 1.33.19.394.201.558.201 2.966 0 1.858-.03 2.581-.113 2.664-.154.154-1.793.154-1.946 0-.063-.063-.114-.233-.114-.378 0-.345-.142-.335-.45.032-.501.595-1.557.817-2.42.51zm2.544-1.7c.17-.17.232-.334.232-.613v-.383l-.591.001c-.792.002-1.055.142-1.092.583-.036.434.229.644.81.644.308 0 .466-.057.64-.232zM155.148 57.603c-.138-.138-.162-6.468-.025-6.683.108-.172 1.549-.257 1.92-.113l.26.1V54.2c0 2.433-.03 3.32-.114 3.404-.155.154-1.887.154-2.041 0zM155.39 50.33c-.789-.488-.686-1.894.163-2.249.975-.407 1.938.147 1.938 1.115 0 .855-.461 1.303-1.337 1.298-.307-.002-.607-.065-.765-.163zM157.967 57.533c-.062-.115-.098-1.347-.098-3.349 0-3.737-.096-3.46 1.202-3.46.94 0 1.16.143 1.16.755 0 .208.035.378.076.378.042 0 .17-.191.283-.426.233-.48.678-.801 1.111-.802.455 0 .515.133.515 1.146 0 1.047-.087 1.216-.624 1.216-.412 0-.88.195-1.124.47-.172.192-.193.383-.236 2.142-.039 1.578-.074 1.948-.19 2.02-.077.05-.554.09-1.06.092-.81 0-.928-.02-1.015-.182z" fill="#483e37"/><g aria-label="a Food A f fair" style="line-height:1.25;-inkscape-font-specification:Aquino" font-weight="400" font-size="10.583" font-family="Fredoka One" letter-spacing="0" word-spacing="0" fill="#483e37" stroke-width=".265"><path d="M21.583-37.656q.064-.593.836-.593.413 0 .614.064.201.063.275.222.085.159.095.286.022.116.022.36v3.704q0 .243-.022.37-.01.117-.084.275-.148.276-.73.276-.572 0-.773-.138-.19-.148-.222-.423-.392.56-1.313.56-.91 0-1.693-.836t-.783-1.936q0-1.112.783-1.937.794-.836 1.736-.836.36 0 .656.127.296.127.413.243.116.106.19.212zm-1.926 2.201q0 .35.275.635.275.275.667.275.391 0 .645-.285.265-.286.265-.625 0-.349-.254-.645-.243-.297-.667-.297-.413 0-.677.297-.254.296-.254.645zM29.783-40.362q.243 0 .36.021.127.01.275.095.159.085.222.286.064.201.064.54t-.064.54q-.063.2-.222.285-.159.074-.286.096-.116.01-.37.01h-3.239v1.07h2.085q.254 0 .37.02.128.01.286.096.276.158.276.836 0 .74-.403.878-.169.053-.54.053h-2.074v2q0 .254-.02.37-.011.117-.096.276-.148.286-.826.286-.74 0-.867-.403-.064-.169-.064-.54v-5.884q0-.54.201-.73.201-.201.762-.201z" style="-inkscape-font-specification:'Fredoka One'"/><path d="M29.878-35.421q0-1.27.89-2.096.888-.825 2.031-.825 1.143 0 2.022.825.878.815.878 2.085 0 .879-.455 1.566-.455.678-1.111 1.006-.646.317-1.344.317-.699 0-1.355-.338-.656-.35-1.111-1.016-.445-.678-.445-1.524zm2.212.762q.339.254.688.254.35 0 .698-.265.35-.264.35-.783t-.328-.773q-.328-.254-.71-.254-.38 0-.709.265-.328.265-.328.783 0 .508.34.773zM36.09-35.421q0-1.27.89-2.096.888-.825 2.031-.825 1.143 0 2.022.825.878.815.878 2.085 0 .879-.455 1.566-.455.678-1.111 1.006-.646.317-1.344.317-.699 0-1.355-.338-.656-.35-1.111-1.016-.445-.678-.445-1.524zm2.212.762q.339.254.688.254.35 0 .699-.265.349-.264.349-.783t-.328-.773q-.328-.254-.71-.254-.38 0-.708.265-.328.265-.328.783 0 .508.338.773zM46.197-40.533q.085-.159.286-.222.201-.064.53-.064.338 0 .539.064.201.063.275.222.085.159.095.286.022.116.022.36v6.318q0 .243-.022.37-.01.117-.095.265-.159.286-.9.286-.73 0-.814-.52-.445.509-1.239.509-.952 0-1.735-.826-.783-.836-.783-1.936 0-1.112.783-1.948.793-.836 1.735-.836.784 0 1.217.53v-2.223q0-.243.011-.36.021-.127.095-.275zm-1.714 5.747q.275.285.667.285.391 0 .645-.285.265-.286.265-.625 0-.349-.254-.645-.244-.297-.667-.297-.423 0-.677.297-.254.285-.254.635 0 .349.275.635zM53.854-39.671l2.857 5.905q.18.36.18.54 0 .381-.614.688-.36.18-.571.18-.201 0-.339-.095-.127-.096-.19-.201l-.159-.318-.55-1.143h-2.932l-.55 1.143q-.106.212-.17.307-.053.095-.19.201-.127.095-.339.095-.2 0-.56-.18-.615-.296-.615-.677 0-.18.18-.54l2.858-5.916q.116-.243.35-.391.243-.149.507-.149.572 0 .847.55zm-.857 2.54l-.699 1.45h1.408zM60.096-38.003q.73 0 .857.402.064.201.064.53 0 .327-.075.528-.063.191-.211.276-.222.127-.646.127l-.677-.043v2.837q0 .402-.106.603-.095.19-.307.254-.2.063-.529.063-.328 0-.53-.063-.19-.074-.274-.222-.085-.16-.106-.286-.01-.127-.01-.37v-2.805h-.382q-.275-.021-.391-.127-.201-.201-.201-.773 0-.868.624-.868h.35v-.56q0-.815.581-1.472.582-.666 1.683-.666.243 0 .36.02.127.011.286.096.285.138.285.815 0 .508-.18.73-.148.17-.465.19h-.297q-.391 0-.391.265v.582zM64.891-37.971c.487 0 .773.134.858.402.042.134.063.31.063.53 0 .218-.025.394-.074.528a.473.473 0 01-.212.275c-.148.085-.363.127-.645.127l-.678-.042v2.836c0 .269-.035.47-.105.604a.483.483 0 01-.307.254c-.134.042-.31.063-.53.063-.218 0-.395-.021-.529-.063a.518.518 0 01-.275-.223.955.955 0 01-.106-.285 4.846 4.846 0 01-.01-.37v-2.805h-.381c-.184-.014-.314-.057-.392-.127-.134-.134-.2-.392-.2-.773 0-.578.207-.868.624-.868h.349v-.56c0-.544.194-1.034.582-1.472.388-.444.949-.667 1.683-.667.162 0 .282.008.36.022.084.007.18.038.285.095.19.092.286.363.286.815 0 .338-.06.582-.18.73-.099.113-.254.176-.466.19h-.296c-.261 0-.392.089-.392.265v.582zM69.799-37.49q.063-.592.836-.592.413 0 .614.063.2.064.275.223.085.158.095.285.021.117.021.36v3.704q0 .244-.02.37-.012.117-.086.276-.148.275-.73.275-.571 0-.772-.137-.191-.149-.223-.424-.391.561-1.312.561-.91 0-1.693-.836-.784-.836-.784-1.937 0-1.11.784-1.936.793-.836 1.735-.836.36 0 .656.127.297.127.413.243.117.106.19.212zm-1.926 2.202q0 .35.275.635.275.275.667.275.391 0 .645-.286.265-.285.265-.624 0-.35-.254-.646-.244-.296-.667-.296-.413 0-.677.296-.254.297-.254.646zM72.384-37.15q0-.244.01-.36.021-.128.095-.286.149-.275.826-.275.508 0 .72.18.18.148.19.455.01.105.01.306v3.705q0 .243-.02.37-.011.116-.096.275-.137.275-.815.275-.666 0-.815-.285-.074-.16-.095-.276-.01-.116-.01-.37zm1.735-1.959q-.074.149-.275.212-.201.064-.54.064-.328 0-.529-.064-.2-.063-.286-.222-.074-.159-.095-.275-.01-.127-.01-.37 0-.244.01-.36.021-.128.095-.276.149-.286.826-.286.667 0 .804.286.085.159.096.286.02.116.02.36 0 .243-.02.37-.011.117-.096.275zM78.713-38.052q.201.064.328.222.138.148.138.487 0 .339-.201.74-.201.403-.582.403-.19 0-.37-.085-.17-.084-.456-.084-.286 0-.54.2-.243.202-.243.488v2.222q0 .244-.021.37-.01.117-.095.276-.16.275-.826.275-.508 0-.73-.18-.17-.148-.19-.455v-4.022q0-.243.01-.36.021-.127.095-.275.148-.285.826-.285.635 0 .793.243.117.17.117.35.053-.075.148-.18.106-.107.434-.286.328-.18.571-.18.254 0 .424.031.169.022.37.085z" style="-inkscape-font-specification:'Fredoka One'"/></g><text style="line-height:1.25;-inkscape-font-specification:Aquino" x="85.368" y="84.27" font-weight="400" font-size="10.583" font-family="Aquino" letter-spacing="0" word-spacing="0" fill="#483e37" stroke-width=".265" transform="translate(-33.694 -110.263)"><tspan x="85.368" y="84.27" style="-inkscape-font-specification:KFhimaji" font-size="7.056" font-family="KFhimaji">食糧事情</tspan></text><g aria-label="a Food A f fair" style="line-height:1.25;-inkscape-font-specification:Aquino" font-weight="400" font-size="10.583" font-family="Fredoka One" letter-spacing="0" word-spacing="0" fill="#483e37" stroke-width=".265"><path d="M3.808 3.163q.063-.593.836-.593.413 0 .614.064.2.063.275.222.085.159.095.286.021.116.021.36v3.704q0 .243-.02.37-.011.116-.085.275-.149.275-.73.275-.572 0-.773-.137-.19-.148-.223-.424-.391.561-1.312.561-.91 0-1.693-.836T.03 5.354q0-1.112.783-1.937.794-.836 1.735-.836.36 0 .657.127.296.127.412.243.117.106.19.212zM1.882 5.364q0 .35.275.635.275.275.667.275.391 0 .645-.285.265-.286.265-.625 0-.35-.254-.645-.244-.297-.667-.297-.413 0-.677.297-.254.296-.254.645zM12.008.457q.243 0 .36.02.127.011.275.096.159.085.222.286.064.201.064.54 0 .338-.064.54-.063.2-.222.285-.159.074-.286.095-.116.011-.37.011H8.748v1.069h2.085q.254 0 .37.021.128.01.286.095.275.16.275.836 0 .741-.402.879-.17.053-.54.053H8.749v2q0 .254-.021.37-.01.117-.095.276-.148.285-.826.285-.74 0-.868-.402-.063-.17-.063-.54V1.388q0-.54.201-.73.201-.201.762-.201z" style="-inkscape-font-specification:'Fredoka One'"/><path d="M12.103 5.397q0-1.27.889-2.095.889-.826 2.032-.826t2.021.826q.879.815.879 2.085 0 .878-.455 1.566-.455.678-1.111 1.006-.646.317-1.345.317-.698 0-1.354-.339-.656-.349-1.111-1.016-.445-.677-.445-1.524zm2.212.762q.339.254.688.254.35 0 .698-.264.35-.265.35-.783 0-.519-.328-.773-.329-.254-.71-.254-.38 0-.709.265-.328.264-.328.783 0 .508.339.772zM18.315 5.397q0-1.27.89-2.095.888-.826 2.031-.826 1.143 0 2.022.826.878.815.878 2.085 0 .878-.455 1.566-.455.678-1.111 1.006-.646.317-1.344.317-.699 0-1.355-.339-.656-.349-1.111-1.016-.445-.677-.445-1.524zm2.212.762q.339.254.688.254.35 0 .699-.264.349-.265.349-.783 0-.519-.328-.773t-.71-.254q-.38 0-.708.265-.328.264-.328.783 0 .508.338.772zM28.422.286q.085-.159.286-.223.201-.063.53-.063.338 0 .539.063.2.064.275.223.085.158.095.285.021.117.021.36V7.25q0 .243-.02.37-.011.116-.096.265-.159.285-.9.285-.73 0-.814-.518-.445.508-1.239.508-.952 0-1.735-.826-.784-.836-.784-1.937 0-1.11.784-1.947.793-.836 1.735-.836.783 0 1.217.53V.92q0-.244.01-.36.022-.127.096-.275zm-1.714 5.746q.275.286.666.286.392 0 .646-.286.265-.285.265-.624 0-.35-.254-.646-.244-.296-.667-.296-.423 0-.677.296-.254.286-.254.635 0 .35.275.635zM4.741 9.9L7.6 15.807q.18.36.18.54 0 .38-.614.688-.36.18-.572.18-.2 0-.338-.095-.127-.096-.19-.202l-.16-.317-.55-1.143H2.424l-.55 1.143q-.107.212-.17.307-.053.095-.19.2-.128.096-.34.096-.2 0-.56-.18Q0 16.727 0 16.346q0-.18.18-.54L3.037 9.89q.117-.243.35-.391.243-.149.508-.149.571 0 .846.55zm-.857 2.54l-.698 1.45h1.407zM10.983 11.569q.73 0 .858.402.063.201.063.53 0 .327-.074.528-.063.19-.212.276-.222.127-.645.127l-.678-.043v2.837q0 .402-.105.603-.096.19-.307.254-.201.063-.53.063-.328 0-.529-.063-.19-.074-.275-.222-.084-.16-.106-.286-.01-.127-.01-.37V13.4h-.381q-.275-.021-.392-.127-.2-.201-.2-.773 0-.868.624-.868h.349v-.56q0-.815.582-1.472.582-.666 1.683-.666.243 0 .36.02.126.011.285.096.286.138.286.815 0 .508-.18.73-.148.17-.466.19h-.296q-.392 0-.392.265v.582zM15.779 11.6c.487 0 .773.135.857.403.042.134.064.31.064.529 0 .219-.025.395-.074.53a.473.473 0 01-.212.274c-.148.085-.363.127-.646.127l-.677-.042v2.836c0 .268-.035.47-.106.604a.483.483 0 01-.307.254c-.134.042-.31.063-.529.063-.219 0-.395-.021-.53-.063a.518.518 0 01-.274-.223.955.955 0 01-.106-.285 4.846 4.846 0 01-.01-.37v-2.805h-.382c-.183-.015-.314-.057-.391-.127-.134-.135-.201-.392-.201-.773 0-.579.208-.868.624-.868h.35v-.56c0-.544.193-1.034.581-1.472.388-.444.95-.667 1.683-.667.162 0 .282.007.36.022.085.007.18.038.286.095.19.092.285.363.285.815 0 .338-.06.582-.18.73-.098.113-.253.176-.465.19h-.296c-.261 0-.392.089-.392.265v.582zM20.686 12.082q.064-.592.836-.592.413 0 .614.063.201.064.275.223.085.158.096.285.02.117.02.36v3.704q0 .244-.02.37-.011.117-.085.276-.148.275-.73.275-.572 0-.773-.138-.19-.148-.222-.423-.392.561-1.313.561-.91 0-1.693-.836t-.783-1.937q0-1.111.783-1.937.794-.836 1.736-.836.36 0 .656.127.296.127.413.244.116.106.19.211zm-1.926 2.202q0 .35.275.635.275.275.667.275t.646-.286q.264-.286.264-.624 0-.35-.254-.646-.243-.296-.667-.296-.412 0-.677.296-.254.297-.254.646zM23.338 12.354q0-.243.01-.36.022-.127.096-.285.148-.275.825-.275.508 0 .72.18.18.148.19.455.011.105.011.306v3.705q0 .243-.021.37-.01.116-.095.275-.138.275-.815.275-.667 0-.815-.285-.074-.16-.096-.276-.01-.116-.01-.37zm1.736-1.958q-.075.149-.276.212-.2.064-.54.064-.327 0-.528-.064-.202-.063-.286-.222-.074-.159-.096-.275-.01-.127-.01-.37 0-.244.01-.36.022-.128.096-.276.148-.286.825-.286.667 0 .805.286.084.159.095.286.021.116.021.36 0 .243-.021.37-.01.117-.095.275zM29.801 11.52q.201.063.328.222.138.148.138.487 0 .339-.201.74-.201.403-.582.403-.19 0-.37-.085-.17-.084-.456-.084-.286 0-.54.2-.243.202-.243.488v2.222q0 .243-.021.37-.01.117-.095.276-.16.275-.826.275-.508 0-.73-.18-.17-.148-.19-.455v-4.022q0-.243.01-.36.021-.127.095-.275.148-.286.826-.286.635 0 .793.244.117.17.117.35.053-.075.148-.18.106-.107.434-.287t.571-.18q.254 0 .424.032.169.021.37.085z" style="-inkscape-font-specification:'Fredoka One'"/></g><g aria-label="食糧事情" style="line-height:1.25;-inkscape-font-specification:Aquino" font-weight="400" font-size="6.35" font-family="KFhimaji" letter-spacing="0" word-spacing="0" fill="#483e37" stroke-width=".265"><path d="M10.196 24.063l.356-.045.025-.063-.025-.375c-.134-.025-.248-.044-.356-.082a2.654 2.654 0 01-.362-.115v-.07l.07-.018c.089-.07.178-.16.241-.248a.67.67 0 00.14-.286l-.026-.178-.31-.14h-.115l-.514.534a.553.553 0 01-.229-.197 2.012 2.012 0 01-.197-.241v-.07c.178 0 .337-.025.49-.089a.86.86 0 00.406-.241.623.623 0 00.177-.311c.026-.108.045-.223.07-.33 0-.185 0-.356-.025-.534a.851.851 0 00-.203-.47.917.917 0 00-.4-.241c-.16-.045-.337-.07-.496-.095V20.1c-.044-.088-.089-.177-.159-.273a1.463 1.463 0 00-.228-.196l-.426.196c-.025.07 0 .115.02.16.025.07.044.113.07.152v.044c-.16.025-.293.044-.452.07a2.2 2.2 0 00-.425.108h-.044c.203-.178.406-.375.61-.578.196-.197.38-.394.533-.597.387.362.793.692 1.2.972.4.317.85.533 1.32.692l.115-.026.14-.26-.032-.159a11.13 11.13 0 01-1.251-.819 66.862 66.862 0 00-1.213-.908v-.044l-.28-.204h-.107c-.337.4-.718.781-1.099 1.118-.387.35-.787.66-1.213.946.02.07.045.14.064.197.025.07.07.133.114.203.178-.019.337-.089.495-.178.153-.082.292-.171.445-.285h.07l-.026.063.026.07c-.026.152-.045.33-.07.489-.02.159-.02.33-.045.489l.026.756-.026.196v.73a.827.827 0 00.204.642l.292.178c.114 0 .203-.026.317-.045.09-.025.178-.044.267-.088 0-.07 0-.16-.026-.223a.578.578 0 00-.088-.19l-.153.012h-.184l.025-1.016.674.02a.78.78 0 00.133.444c.076.152.165.292.254.425.203.216.406.369.648.483.247.108.495.178.768.197zm-.902-2.324c-.222.108-.47.152-.724.178-.247.019-.514.063-.762.088H7.72l-.025-.133v-.222c.273 0 .54 0 .787-.02.254 0 .502-.025.75-.07h.133zm.045-.73l-.267-.026c-.248 0-.47 0-.705.025-.222.02-.444.045-.648.108h-.044l-.025-.177v-.134l.38-.044h.68c.229 0 .425.044.629.133zM16.165 24.133c.203 0 .406 0 .61-.026.196 0 .38-.019.558-.044l.045-.197-.026-.203-.895-.115v-.088l.584-.045c.045-.025.07-.044.07-.114 0-.045 0-.09.02-.108v-.114c-.064-.07-.179-.09-.293-.115-.108 0-.222 0-.337-.019v-.07c.16-.019.293-.044.451-.063a.923.923 0 00.381-.184.93.93 0 00.16-.203c.018-.064.044-.153.063-.242.025-.159 0-.336-.02-.495a.711.711 0 00-.203-.406c-.089-.064-.177-.134-.292-.16-.114-.018-.222-.044-.336-.063-.248-.025-.496 0-.718.02-.248.025-.45.114-.654.228a.478.478 0 00-.178.248 1.605 1.605 0 00-.114.266c-.02.134 0 .267.025.381.026.134.07.248.134.362a.598.598 0 00.336.222c.115.045.248.09.381.115l-.019.063-.317.07-.045.089.026.292.4.045v.088l-.673.07-.02.064.02.362zm-2.915-.337l.267-.044.07-.877c.089.07.178.134.267.204.088.07.203.114.317.133l.089-.02.089-.272v-.108a2.954 2.954 0 01-.407-.495 25.03 25.03 0 00-.336-.54v-.159c.159 0 .292 0 .45-.019.16-.025.293-.044.426-.07l.026-.114-.026-.292-.495-.064c.114-.133.228-.292.292-.45.07-.16.089-.312.114-.496l-.044-.444-.045-.026h-.336a1.355 1.355 0 00-.178.54 4.454 4.454 0 01-.159.559v.07l.267.203v.044h-.311v-.787a1.7 1.7 0 00-.203-.673h-.16c-.044.025-.088.044-.132.07l-.09 1.39c-.114.02-.247.02-.361.045a1.757 1.757 0 00-.337.089v.336c.07.07.159.115.273.09a.632.632 0 01.292.025c-.07.203-.158.4-.247.603-.115.203-.223.406-.362.584a.583.583 0 00.114.381h.07c.108-.044.197-.114.311-.203.114-.064.178-.152.248-.267h.044l.07.984zm2.693-1.505l-.273-.019v-.044h.273zm.895-.063l-.248.063h-.089v-.063l.134-.026zm-.876-.496l-.311.045h-.07l.044-.159.292-.063h.045zm.965-.044l-.02.019h-.425l-.025-.089v-.044c.089 0 .178 0 .248.025.07.019.158.044.222.089zm-1.79-.673h1.974l.737-.07.07-.178-.026-.222-.692-.095h-1.842c-.133.025-.266.025-.38.025-.134.026-.274.045-.382.07l-.07.152.045.229zm-2.515-.09l.336-.228c-.025-.152-.044-.31-.089-.47a1.699 1.699 0 00-.203-.4c-.07 0-.159 0-.222.02a.925.925 0 00-.203.114c0 .108.019.247.044.355.02.115.064.229.114.337zm3.34-.52c.228.026.45 0 .654-.044.203-.02.4-.108.584-.222.089-.09.152-.204.203-.312.045-.114.064-.228.09-.336 0-.114 0-.248-.026-.362-.02-.114-.09-.203-.16-.292a.726.726 0 00-.38-.267c-.152-.025-.292-.044-.445-.07a2.55 2.55 0 00-.61.07 1.863 1.863 0 00-.539.267l-.241.47a.963.963 0 00.044.45c.02.134.09.248.197.356.095.07.184.14.292.184.114.064.229.09.337.108zm.857-.692l-.495.133c-.115 0-.204 0-.292-.019a.596.596 0 01-.267-.07v-.044l.984-.07h.07zm.019-.559c-.178.02-.356.02-.54.02-.197.025-.38.044-.533.07h-.14l.045-.115.387-.114c.152 0 .286 0 .425.025a.968.968 0 01.356.114zM21.112 24.234h.222c.07 0 .114-.019.184-.063a.666.666 0 00.178-.375c.019-.133.019-.254.044-.38l.457.044a.946.946 0 00.381-.07.98.98 0 00.337-.134c.063-.101.133-.19.197-.298.044-.114.07-.216.095-.324l.4-.044.076-.223-.031-.19-.47-.07c0-.07-.026-.152-.045-.216-.025-.07-.07-.133-.114-.197a1.315 1.315 0 00-.559-.355c-.203-.064-.432-.077-.68-.077v-.203c.204-.019.432-.044.636-.063.203-.026.4-.09.558-.197a.977.977 0 00.16-.172.76.76 0 00.088-.196.64.64 0 00-.044-.369c-.045-.114-.115-.203-.178-.286a2.031 2.031 0 00-.584-.24 3.14 3.14 0 00-.66-.07v-.045h1.333l.114-.28v-.127c-.248-.063-.495-.133-.743-.158-.248-.02-.52-.045-.768-.064l-.07-.413-.159-.088-.152.019c-.09.025-.14.088-.14.177 0 .115 0 .197-.019.286-.292 0-.59 0-.883.02-.292.018-.584.063-.85.132l-.09.127c.02.07.02.115.045.185.02.057.044.127.089.171h1.689v.057c-.248.026-.495.045-.75.07a2.415 2.415 0 00-.691.241.508.508 0 00-.16.197 3.72 3.72 0 00-.113.242.6.6 0 000 .26c.025.082.044.171.114.241.203.172.45.254.743.28.266.019.54.044.832.063v.203c-.223.013-.445.013-.68.032-.241.025-.47.07-.673.114l-.089.134v.152l.134.153h1.2l.019-.026h.089v.241c-.337 0-.654 0-.972.02-.336.025-.648.05-.959.095l-.07.127.045.285.54.09h1.016l.425.018v.146h-1.308l-.025.026-.108.222.044.165c.222.07.45.09.692.114.235.02.457.045.705.045v.317h-.114l-.248.235.025.115zm1.397-1.435l-.115.026h-.635v-.146l.724-.026h.051l-.025.089zm-.026-.762l-.019.026h-.705l.026-.197c.133 0 .266.025.387.044.114.026.203.07.311.127zm-1.327-1.587h-.59a1.61 1.61 0 01-.585-.09l.045-.209.54-.114h.59zm1.422-.153c-.095.045-.184.064-.273.09-.108.018-.21.018-.317.044h-.203l-.026-.267v-.102l.794.127zM29.144 24.082c.09.025.178 0 .248-.026a.756.756 0 00.197-.107 1.67 1.67 0 00.184-.61c.019-.197.019-.426.044-.629v-.622c-.025-.203-.088-.387-.247-.54l-.451-.184h-.648c-.203.025-.406.07-.584.159-.07.07-.133.133-.178.203a.437.437 0 00-.095.292c-.02.311 0 .629.025.92.026.293.045.604.09.896l.133.09c.07 0 .114 0 .158-.02.045 0 .09-.025.134-.044l.07-.426.133.02.698-.07h.134a.65.65 0 010 .272.69.69 0 01-.134.223v.133zm-3.029-.47l.292-.044c.02-.293.045-.61.064-.921.025-.318.025-.629.025-.946h.045l.311.292.362-.292v-.09c-.07-.133-.133-.266-.222-.4-.115-.114-.229-.228-.362-.291l-.09.044h-.044v-.762c-.025-.248-.044-.476-.07-.717l-.177-.096-.267.07-.114 1.169v2.222l.063.692zm3.093-.699h-.4c-.159 0-.292.026-.426.045h-.158v-.292l.85-.064h.134zm-4.013-.736l.177-.089c.115-.114.223-.229.293-.362a1.37 1.37 0 00.158-.425l-.025-.178-.337-.159-.108.019-.431.787c0 .09.05.16.114.223.07.07.114.114.159.184zm3.968-.026l-.108-.019-.673.045h-.14v-.14l.388-.044h.286c.095.025.184.044.247.07zm-1.39-.984c.38 0 .787 0 1.168-.025.381-.02.743-.045 1.124-.09l.064-.158v-.292c-.204-.044-.381-.063-.585-.089-.196-.019-.425-.019-.628-.019l.025-.292c.159 0 .292 0 .451-.025.133-.02.267-.045.4-.064l.025-.095-.025-.356c-.133-.025-.267-.044-.425-.07-.16-.019-.293-.019-.451-.019v-.133l.673-.07.095-.133v-.292c-.114-.07-.229-.09-.362-.115-.159-.019-.292-.019-.45-.019v-.247l-.242-.09h-.184c-.064.02-.09.064-.09.134-.018.064-.018.134-.018.203-.14.02-.273.02-.407.02-.133.025-.266.044-.38.088l-.045.134.044.317.743.07v.152c-.14.026-.273.026-.387.045-.133.025-.267.07-.38.14l.024.336c.064.089.178.133.337.108.159-.019.292-.019.425 0l.026.248v.044l-.99.09c-.045.024-.07.044-.07.088-.02.044-.02.095-.045.14l.044.241z" style="-inkscape-font-specification:KFhimaji"/></g></svg>