<svg xmlns="http://www.w3.org/2000/svg" width="114.394" height="91.594" viewBox="0 0 30.267 24.234"><g font-weight="400" letter-spacing="0" word-spacing="0" fill="#483e37" stroke-width=".265"><g aria-label="a Food A f fair" style="line-height:1.25;-inkscape-font-specification:Aquino" font-size="10.583" font-family="Fredoka One"><path d="M3.808 3.163q.063-.593.836-.593.413 0 .614.064.2.063.275.222.085.159.095.286.021.116.021.36v3.704q0 .243-.02.37-.011.116-.085.275-.149.275-.73.275-.572 0-.773-.137-.19-.148-.223-.424-.391.561-1.312.561-.91 0-1.693-.836T.03 5.354q0-1.112.783-1.937.794-.836 1.735-.836.36 0 .657.127.296.127.412.243.117.106.19.212zM1.882 5.364q0 .35.275.635.275.275.667.275.391 0 .645-.285.265-.286.265-.625 0-.35-.254-.645-.244-.297-.667-.297-.413 0-.677.297-.254.296-.254.645zM12.008.457q.243 0 .36.02.127.011.275.096.159.085.222.286.064.201.064.54 0 .338-.064.54-.063.2-.222.285-.159.074-.286.095-.116.011-.37.011H8.748v1.069h2.085q.254 0 .37.021.128.01.286.095.275.16.275.836 0 .741-.402.879-.17.053-.54.053H8.749v2q0 .254-.021.37-.01.117-.095.276-.148.285-.826.285-.74 0-.868-.402-.063-.17-.063-.54V1.388q0-.54.201-.73.201-.201.762-.201z" style="-inkscape-font-specification:'Fredoka One'"/><path d="M12.103 5.397q0-1.27.889-2.095.889-.826 2.032-.826t2.021.826q.879.815.879 2.085 0 .878-.455 1.566-.455.678-1.111 1.006-.646.317-1.345.317-.698 0-1.354-.339-.656-.349-1.111-1.016-.445-.677-.445-1.524zm2.212.762q.339.254.688.254.35 0 .698-.264.35-.265.35-.783 0-.519-.328-.773-.329-.254-.71-.254-.38 0-.709.265-.328.264-.328.783 0 .508.339.772zM18.315 5.397q0-1.27.89-2.095.888-.826 2.031-.826 1.143 0 2.022.826.878.815.878 2.085 0 .878-.455 1.566-.455.678-1.111 1.006-.646.317-1.344.317-.699 0-1.355-.339-.656-.349-1.111-1.016-.445-.677-.445-1.524zm2.212.762q.339.254.688.254.35 0 .699-.264.349-.265.349-.783 0-.519-.328-.773t-.71-.254q-.38 0-.708.265-.328.264-.328.783 0 .508.338.772zM28.422.286q.085-.159.286-.223.201-.063.53-.063.338 0 .539.063.2.064.275.223.085.158.095.285.021.117.021.36V7.25q0 .243-.02.37-.011.116-.096.265-.159.285-.9.285-.73 0-.814-.518-.445.508-1.239.508-.952 0-1.735-.826-.784-.836-.784-1.937 0-1.11.784-1.947.793-.836 1.735-.836.783 0 1.217.53V.92q0-.244.01-.36.022-.127.096-.275zm-1.714 5.746q.275.286.666.286.392 0 .646-.286.265-.285.265-.624 0-.35-.254-.646-.244-.296-.667-.296-.423 0-.677.296-.254.286-.254.635 0 .35.275.635zM4.741 9.9L7.6 15.807q.18.36.18.54 0 .38-.614.688-.36.18-.572.18-.2 0-.338-.095-.127-.096-.19-.202l-.16-.317-.55-1.143H2.424l-.55 1.143q-.107.212-.17.307-.053.095-.19.2-.128.096-.34.096-.2 0-.56-.18Q0 16.727 0 16.346q0-.18.18-.54L3.037 9.89q.117-.243.35-.391.243-.149.508-.149.571 0 .846.55zm-.857 2.54l-.698 1.45h1.407zM10.983 11.569q.73 0 .858.402.063.201.063.53 0 .327-.074.528-.063.19-.212.276-.222.127-.645.127l-.678-.043v2.837q0 .402-.105.603-.096.19-.307.254-.201.063-.53.063-.328 0-.529-.063-.19-.074-.275-.222-.084-.16-.106-.286-.01-.127-.01-.37V13.4h-.381q-.275-.021-.392-.127-.2-.201-.2-.773 0-.868.624-.868h.349v-.56q0-.815.582-1.472.582-.666 1.683-.666.243 0 .36.02.126.011.285.096.286.138.286.815 0 .508-.18.73-.148.17-.466.19h-.296q-.392 0-.392.265v.582zM15.779 11.6c.487 0 .773.135.857.403.042.134.064.31.064.529 0 .219-.025.395-.074.53a.473.473 0 01-.212.274c-.148.085-.363.127-.646.127l-.677-.042v2.836c0 .268-.035.47-.106.604a.483.483 0 01-.307.254c-.134.042-.31.063-.529.063-.219 0-.395-.021-.53-.063a.518.518 0 01-.274-.223.955.955 0 01-.106-.285 4.846 4.846 0 01-.01-.37v-2.805h-.382c-.183-.015-.314-.057-.391-.127-.134-.135-.201-.392-.201-.773 0-.579.208-.868.624-.868h.35v-.56c0-.544.193-1.034.581-1.472.388-.444.95-.667 1.683-.667.162 0 .282.007.36.022.085.007.18.038.286.095.19.092.285.363.285.815 0 .338-.06.582-.18.73-.098.113-.253.176-.465.19h-.296c-.261 0-.392.089-.392.265v.582zM20.686 12.082q.064-.592.836-.592.413 0 .614.063.201.064.275.223.085.158.096.285.02.117.02.36v3.704q0 .244-.02.37-.011.117-.085.276-.148.275-.73.275-.572 0-.773-.138-.19-.148-.222-.423-.392.561-1.313.561-.91 0-1.693-.836t-.783-1.937q0-1.111.783-1.937.794-.836 1.736-.836.36 0 .656.127.296.127.413.244.116.106.19.211zm-1.926 2.202q0 .35.275.635.275.275.667.275t.646-.286q.264-.286.264-.624 0-.35-.254-.646-.243-.296-.667-.296-.412 0-.677.296-.254.297-.254.646zM23.338 12.354q0-.243.01-.36.022-.127.096-.285.148-.275.825-.275.508 0 .72.18.18.148.19.455.011.105.011.306v3.705q0 .243-.021.37-.01.116-.095.275-.138.275-.815.275-.667 0-.815-.285-.074-.16-.096-.276-.01-.116-.01-.37zm1.736-1.958q-.075.149-.276.212-.2.064-.54.064-.327 0-.528-.064-.202-.063-.286-.222-.074-.159-.096-.275-.01-.127-.01-.37 0-.244.01-.36.022-.128.096-.276.148-.286.825-.286.667 0 .805.286.084.159.095.286.021.116.021.36 0 .243-.021.37-.01.117-.095.275zM29.801 11.52q.201.063.328.222.138.148.138.487 0 .339-.201.74-.201.403-.582.403-.19 0-.37-.085-.17-.084-.456-.084-.286 0-.54.2-.243.202-.243.488v2.222q0 .243-.021.37-.01.117-.095.276-.16.275-.826.275-.508 0-.73-.18-.17-.148-.19-.455v-4.022q0-.243.01-.36.021-.127.095-.275.148-.286.826-.286.635 0 .793.244.117.17.117.35.053-.075.148-.18.106-.107.434-.287t.571-.18q.254 0 .424.032.169.021.37.085z" style="-inkscape-font-specification:'Fredoka One'"/></g><g aria-label="食糧事情" style="line-height:1.25;-inkscape-font-specification:Aquino" font-size="6.35" font-family="KFhimaji"><path d="M4.375 24.063l.356-.045.025-.063-.025-.375c-.134-.025-.248-.044-.356-.082a2.654 2.654 0 01-.362-.115v-.07l.07-.018c.089-.07.178-.16.241-.248a.67.67 0 00.14-.286l-.025-.178-.312-.14h-.114l-.514.534a.553.553 0 01-.229-.197 2.012 2.012 0 01-.197-.241v-.07c.178 0 .337-.025.49-.089a.86.86 0 00.406-.241.623.623 0 00.177-.311c.026-.108.045-.223.07-.33 0-.185 0-.356-.025-.534a.851.851 0 00-.203-.47.917.917 0 00-.4-.241c-.16-.045-.337-.07-.496-.095V20.1c-.044-.088-.089-.177-.158-.273a1.463 1.463 0 00-.229-.196l-.425.196c-.026.07 0 .115.019.16.025.07.044.113.07.152v.044c-.16.025-.293.044-.451.07a2.2 2.2 0 00-.426.108h-.044c.203-.178.406-.375.61-.578.196-.197.38-.394.533-.597.387.362.793.692 1.2.972.4.317.85.533 1.32.692l.115-.026.14-.26-.032-.159a11.13 11.13 0 01-1.251-.819 66.862 66.862 0 00-1.213-.908v-.044l-.28-.204h-.107c-.337.4-.718.781-1.099 1.118-.387.35-.787.66-1.213.946.02.07.045.14.064.197.025.07.07.133.114.203.178-.019.337-.089.495-.178.153-.082.293-.171.445-.285h.07l-.026.063.026.07c-.026.152-.045.33-.07.489-.02.159-.02.33-.044.489l.025.756-.025.196v.73a.827.827 0 00.203.642l.292.178c.114 0 .203-.026.317-.045.09-.025.178-.044.267-.088 0-.07 0-.16-.025-.223a.578.578 0 00-.09-.19l-.152.012h-.184l.026-1.016.673.02a.78.78 0 00.133.444c.076.152.165.292.254.425.203.216.406.369.648.483.247.108.495.178.768.197zm-.902-2.324c-.222.108-.47.152-.724.178-.247.019-.514.063-.762.088H1.9l-.026-.133v-.222c.273 0 .54 0 .788-.02.254 0 .501-.025.749-.07h.133zm.045-.73l-.267-.026c-.248 0-.47 0-.705.025-.222.02-.444.045-.647.108h-.045l-.025-.177v-.134l.38-.044h.68c.229 0 .426.044.629.133zM10.344 24.133c.203 0 .406 0 .61-.026.197 0 .38-.019.558-.044l.045-.197-.025-.203-.896-.115v-.088l.584-.045c.045-.025.07-.044.07-.114 0-.045 0-.09.02-.108v-.114c-.064-.07-.179-.09-.293-.115-.108 0-.222 0-.336-.019v-.07c.158-.019.292-.044.45-.063a.923.923 0 00.381-.184.93.93 0 00.16-.203c.018-.064.044-.153.063-.242.025-.159 0-.336-.02-.495a.711.711 0 00-.203-.406c-.088-.064-.177-.134-.292-.16-.114-.018-.222-.044-.336-.063-.248-.025-.495 0-.718.02-.247.025-.45.114-.654.228a.478.478 0 00-.178.248 1.605 1.605 0 00-.114.266c-.019.134 0 .267.026.381.025.134.07.248.133.362a.598.598 0 00.336.222c.115.045.248.09.381.115l-.019.063-.317.07-.045.089.026.292.4.045v.088l-.673.07-.02.064.02.362zm-2.915-.337l.267-.044.07-.877c.089.07.178.134.267.204.089.07.203.114.317.133l.09-.02.088-.272v-.108a2.954 2.954 0 01-.406-.495 25.03 25.03 0 00-.337-.54v-.159c.159 0 .292 0 .45-.019.16-.025.293-.044.426-.07l.026-.114-.026-.292-.495-.064c.114-.133.229-.292.292-.45.07-.16.089-.312.114-.496l-.044-.444-.044-.026h-.337a1.355 1.355 0 00-.178.54 4.454 4.454 0 01-.159.559v.07l.267.203v.044h-.311v-.787a1.7 1.7 0 00-.203-.673h-.159c-.044.025-.089.044-.133.07l-.09 1.39c-.114.02-.247.02-.361.045a1.757 1.757 0 00-.337.089v.336c.07.07.159.115.273.09a.632.632 0 01.292.025c-.07.203-.158.4-.247.603-.115.203-.222.406-.362.584a.583.583 0 00.114.381h.07c.108-.044.197-.114.311-.203.114-.064.178-.152.248-.267h.044l.07.984zm2.693-1.505l-.273-.019v-.044h.273zm.895-.063l-.247.063h-.09v-.063l.134-.026zm-.876-.496l-.311.045h-.07l.044-.159.292-.063h.045zm.965-.044l-.019.019h-.425l-.026-.089v-.044c.09 0 .178 0 .248.025.07.019.159.044.222.089zm-1.79-.673h1.974l.737-.07.07-.178-.026-.222-.692-.095H9.538c-.134.025-.267.025-.381.025-.134.026-.273.045-.381.07l-.07.152.044.229zm-2.515-.09l.336-.228c-.025-.152-.044-.31-.089-.47a1.699 1.699 0 00-.203-.4c-.07 0-.159 0-.222.02a.925.925 0 00-.203.114c0 .108.019.247.044.355.02.115.064.229.115.337zm3.34-.52c.228.026.45 0 .654-.044.203-.02.4-.108.584-.222.089-.09.153-.204.203-.312.045-.114.064-.228.09-.336 0-.114 0-.248-.026-.362-.02-.114-.09-.203-.159-.292a.726.726 0 00-.38-.267c-.153-.025-.293-.044-.445-.07a2.55 2.55 0 00-.61.07 1.863 1.863 0 00-.54.267l-.241.47a.963.963 0 00.044.45c.02.134.09.248.197.356.095.07.184.14.292.184.115.064.229.09.337.108zm.857-.692l-.495.133c-.114 0-.203 0-.292-.019a.596.596 0 01-.267-.07v-.044l.984-.07h.07zm.02-.559c-.179.02-.356.02-.54.02-.197.025-.382.044-.534.07h-.14l.045-.115.387-.114c.153 0 .286 0 .426.025a.968.968 0 01.355.114zM15.29 24.234h.223c.07 0 .114-.019.184-.063a.666.666 0 00.178-.375c.019-.133.019-.254.044-.38l.458.044a.946.946 0 00.38-.07.98.98 0 00.337-.134c.064-.101.133-.19.197-.298.044-.114.07-.216.095-.324l.4-.044.076-.223-.031-.19-.47-.07c0-.07-.026-.152-.045-.216-.025-.07-.07-.133-.114-.197a1.315 1.315 0 00-.559-.355c-.203-.064-.432-.077-.68-.077v-.203c.204-.019.433-.044.636-.063.203-.026.4-.09.559-.197a.977.977 0 00.158-.172.76.76 0 00.09-.196.64.64 0 00-.045-.369c-.045-.114-.114-.203-.178-.286a2.031 2.031 0 00-.584-.24 3.14 3.14 0 00-.66-.07v-.045h1.333l.114-.28v-.127c-.247-.063-.495-.133-.743-.158-.247-.02-.52-.045-.768-.064l-.07-.413-.159-.088-.152.019c-.089.025-.14.088-.14.177 0 .115 0 .197-.019.286-.292 0-.59 0-.882.02-.293.018-.585.063-.851.132l-.09.127c.02.07.02.115.045.185.02.057.045.127.09.171h1.688v.057c-.247.026-.495.045-.75.07a2.415 2.415 0 00-.691.241.508.508 0 00-.159.197 3.72 3.72 0 00-.114.242.6.6 0 000 .26c.025.082.044.171.114.241.203.172.45.254.743.28.267.019.54.044.832.063v.203c-.222.013-.445.013-.68.032-.241.025-.47.07-.673.114l-.089.134v.152l.134.153h1.2l.019-.026h.089v.241c-.337 0-.654 0-.972.02-.336.025-.647.05-.959.095l-.07.127.045.285.54.09h1.016l.425.018v.146h-1.308l-.025.026-.108.222.044.165c.222.07.451.09.692.114.235.02.458.045.705.045v.317h-.114l-.248.235.026.115zm1.398-1.435l-.115.026h-.635v-.146l.724-.026h.051l-.025.089zm-.026-.762l-.019.026h-.705l.026-.197c.133 0 .267.025.387.044.114.026.203.07.311.127zm-1.327-1.587h-.59a1.61 1.61 0 01-.585-.09l.045-.209.54-.114h.59zm1.423-.153c-.096.045-.185.064-.273.09-.108.018-.21.018-.318.044h-.203l-.026-.267v-.102l.794.127zM23.323 24.082c.09.025.178 0 .248-.026a.756.756 0 00.197-.107 1.67 1.67 0 00.184-.61c.02-.197.02-.426.045-.629v-.622c-.026-.203-.09-.387-.248-.54l-.45-.184h-.649c-.203.025-.406.07-.584.159-.07.07-.133.133-.178.203a.437.437 0 00-.095.292c-.019.311 0 .629.026.92.025.293.044.604.088.896l.134.09c.07 0 .114 0 .159-.02.044 0 .088-.025.133-.044l.07-.426.133.02.699-.07h.133a.65.65 0 010 .272.69.69 0 01-.133.223v.133zm-3.028-.47l.292-.044c.019-.293.044-.61.063-.921.026-.318.026-.629.026-.946h.044l.311.292.362-.292v-.09c-.07-.133-.133-.266-.222-.4-.114-.114-.229-.228-.362-.291l-.089.044h-.044v-.762c-.026-.248-.045-.476-.07-.717l-.178-.096-.267.07-.114 1.169v2.222l.063.692zm3.092-.699h-.4c-.159 0-.292.026-.426.045h-.158v-.292l.85-.064h.134zm-4.013-.736l.178-.089c.114-.114.222-.229.292-.362a1.37 1.37 0 00.158-.425l-.025-.178-.337-.159-.107.019-.432.787c0 .09.05.16.114.223.07.07.114.114.159.184zm3.969-.026l-.108-.019-.674.045h-.14v-.14l.388-.044h.286c.095.025.184.044.248.07zm-1.391-.984c.38 0 .787 0 1.168-.025.381-.02.743-.045 1.124-.09l.064-.158v-.292c-.203-.044-.381-.063-.584-.089-.197-.019-.426-.019-.63-.019l.026-.292c.159 0 .292 0 .451-.025.133-.02.267-.045.4-.064l.026-.095-.026-.356c-.133-.025-.267-.044-.425-.07-.159-.019-.292-.019-.451-.019v-.133l.673-.07.095-.133v-.292c-.114-.07-.228-.09-.362-.115-.158-.019-.292-.019-.45-.019v-.247l-.242-.09h-.184c-.064.02-.089.064-.089.134-.019.064-.019.134-.019.203-.14.02-.273.02-.406.02-.134.025-.267.044-.381.088l-.045.134.045.317.743.07v.152c-.14.026-.273.026-.388.045-.133.025-.266.07-.38.14l.025.336c.063.089.177.133.336.108.159-.019.292-.019.426 0l.025.248v.044l-.99.09c-.045.024-.07.044-.07.088-.02.044-.02.095-.045.14l.045.241z" style="-inkscape-font-specification:KFhimaji"/></g></g></svg>