<svg xmlns="http://www.w3.org/2000/svg" width="200" height="215.266"><path d="M173.732 57.786c.474-1.973.717-3.982.717-6.02V45.33c0-12.864-9.604-24.626-27.044-33.119C131.238 4.336 109.865 0 87.225 0 64.583 0 43.211 4.336 27.042 12.21 9.604 20.703 0 32.465 0 45.33v6.438c0 12.685 9.345 24.297 26.327 32.76-.471 1.964-.775 4.41-.775 5.99v1.175C9.058 100.122 0 111.574 0 124.065v6.438c0 8.674 4.373 16.846 12.565 23.854-1.109 2.962-1.686 6.019-1.686 9.142v6.438c0 12.864 9.604 24.626 27.043 33.119 16.168 7.874 37.54 12.21 60.181 12.21 22.64 0 44.013-4.336 60.181-12.21 17.44-8.493 27.043-20.255 27.043-33.119v-6.438c0-8.672-4.369-16.843-12.557-23.85 1.107-2.963 1.678-6.022 1.678-9.146v-1.174C190.942 120.899 200 109.447 200 96.955v-6.438c0-12.67-9.323-24.27-26.268-32.731zM12.19 39.88c2.526-6.423 9.407-12.66 19.719-17.681 14.682-7.15 34.327-11.089 55.315-11.089 20.989 0 40.634 3.938 55.316 11.089 10.313 5.022 17.193 11.259 19.72 17.681-8.926 15.524-39.933 26.843-75.036 26.843S21.114 55.405 12.19 39.88zm0 78.737c2.054-5.222 7-10.316 14.316-14.74 2.819 10.128 11.836 19.255 26.09 26.196 16.168 7.874 37.54 12.21 60.18 12.21 2.214 0 4.41-.053 6.596-.135-9.884 2.126-20.8 3.312-32.147 3.312-35.103 0-66.111-11.32-75.035-26.843zm160.948 39.433c-8.924 15.524-39.932 26.843-75.035 26.843-30.494 0-57.88-8.546-70.4-20.966 16.088 7.675 37.183 11.904 59.521 11.904 22.641 0 44.014-4.336 60.181-12.21 8.377-4.08 14.94-8.915 19.506-14.264 2.946 2.79 5.058 5.72 6.227 8.693zm-60.362-46.138c-30.648 0-58.173-8.629-70.606-21.15 13.426 4.118 28.912 6.333 45.054 6.333 22.641 0 44.014-4.336 60.181-12.21 9.79-4.768 17.11-10.566 21.65-17.011 9.772 4.936 16.31 10.976 18.756 17.195-8.924 15.524-39.932 26.843-75.035 26.843z" fill="#483e37"/></svg>