<svg xmlns="http://www.w3.org/2000/svg" xmlns:xlink="http://www.w3.org/1999/xlink" width="755.906" height="561.967" viewBox="0 0 200 148.687"><defs><linearGradient id="d"><stop offset="0" stop-color="#483e37"/><stop offset="1" stop-color="#483e37" stop-opacity=".065"/></linearGradient><linearGradient id="c"><stop offset="0" stop-color="#1a1a1a"/><stop offset="1" stop-color="#1a1a1a" stop-opacity="0"/></linearGradient><linearGradient id="b"><stop offset="0" stop-color="#f5d48c"/><stop offset="1" stop-color="#f5d48c" stop-opacity="0"/></linearGradient><linearGradient id="a"><stop offset="0" stop-color="#b0793a"/><stop offset="1" stop-color="#b0793a" stop-opacity="0"/></linearGradient><linearGradient xlink:href="#a" id="f" x1="-274.411" y1="102.72" x2="-199.303" y2="102.7" gradientUnits="userSpaceOnUse" gradientTransform="matrix(.27274 0 0 1.16045 -104.286 -178.29)"/><linearGradient xlink:href="#b" id="e" x1="-385.589" y1="123.275" x2="-85.34" y2="123.275" gradientUnits="userSpaceOnUse" gradientTransform="matrix(.59178 0 0 .55849 79.474 100.432)"/><linearGradient xlink:href="#c" id="g" x1="-385.589" y1="123.275" x2="-85.34" y2="123.275" gradientUnits="userSpaceOnUse" gradientTransform="matrix(.59178 0 0 .55849 87.226 348.268)"/><linearGradient xlink:href="#d" id="h" x1="-274.411" y1="102.72" x2="-199.303" y2="102.7" gradientUnits="userSpaceOnUse" gradientTransform="matrix(.27274 0 0 1.16045 -166.353 -498.582)"/></defs><path d="M198.538 73.365a101.182 71.864 12.505 01-81.37 75.297A101.182 71.864 12.505 011.506 77.2a101.182 71.864 12.505 0181.07-75.483 101.182 71.864 12.505 01115.87 71.265" fill="#efca79"/><path d="M25.034 23.39S13.273 38.438 13.273 45.787c0 7.349 5.513 16.098 5.513 16.098s6.984 3.5 9.924 9.799c2.94 6.299 11.394 21.697 18.745 24.497 7.351 2.8 16.173-1.4 19.48.35 3.309 1.75 2.941 6.299 6.616 6.999 3.676.7 8.822-3.15 10.66-1.4 1.837 1.75 16.907 12.599 29.404 13.298 12.497.7 24.993-10.498 32.344-10.148 7.352.35 12.497 1.75 18.01-.35 5.514-2.1 8.822-11.549 13.6-11.549 4.778 0 14.335-1.05 16.172-7.349 1.838-6.3 2.206-16.448-.735-21.347-2.94-4.9-17.275-23.098-17.275-23.098s-21.318-17.847-33.08-22.047C130.89 15.34 112.88 9.041 94.87 7.991c-18.01-1.05-37.858-.7-46.68 2.8-8.82 3.5-23.156 12.599-23.156 12.599z" fill="#6c5d53" stroke="#483e37" stroke-width="9.489"/><path d="M23.063 17.036S10.958 33.14 10.958 41.005c0 7.864 5.674 17.227 5.674 17.227s7.188 3.745 10.214 10.486c3.026 6.742 11.727 23.22 19.293 26.216 7.566 2.996 16.645-1.498 20.05.375 3.404 1.872 3.026 6.74 6.809 7.49 3.783.749 9.079-3.37 10.97-1.498 1.892 1.872 17.402 13.482 30.263 14.231 12.862.75 25.724-11.235 33.29-10.86 7.566.374 12.862 1.872 18.536-.375 5.675-2.247 9.08-12.359 13.997-12.359 4.918 0 14.754-1.123 16.645-7.865 1.892-6.74 2.27-17.602-.756-22.845-3.027-5.243-17.78-24.718-17.78-24.718s-21.941-19.1-34.046-23.594C132.01 8.422 113.475 1.681 94.939.557 76.402-.566 55.974-.192 46.895 3.553 37.816 7.3 23.063 17.036 23.063 17.036z" fill="#6c5d53"/><path d="M-214.302-390.102a13.814 33.335 0 01-8.62 42.272 13.814 33.335 0 01-17.528-20.746 13.814 33.335 0 018.575-42.326 13.814 33.335 0 0117.55 20.636" transform="rotate(-77.495 203.824 -378.52)" fill="none" stroke="url(#h)" stroke-width="3.802" stroke-linecap="round" stroke-linejoin="round"/><path d="M100.141 38.877a31.316 7.914 12.505 0137.7 13.42 31.316 7.914 12.505 01-21.201 5.583 31.316 7.914 12.505 01-37.755-13.405 31.316 7.914 12.505 0121.103-5.618" fill="#483e37"/></svg>